<svg width="183" height="44" viewBox="0 0 183 44" fill="none" xmlns="http://www.w3.org/2000/svg">
<mask id="mask0_1443_5518" style="mask-type:alpha" maskUnits="userSpaceOnUse" x="0" y="0" width="183" height="44">
<rect width="183" height="44" rx="11" fill="#4285F4"/>
</mask>
<g mask="url(#mask0_1443_5518)">
<rect width="183" height="44" rx="11" fill="#1068FA"/>
<path d="M131 15.5C62.6 39.5 21.8333 7.5 10 -11.5L-4.5 -4.5L-10 23.5C-4.16667 35.5 8 59.8 10 61C12 62.2 51.1667 62.8333 70.5 63L215 65.5L235.5 46.5C229.167 26.1667 199.4 -8.5 131 15.5Z" fill="#186FFF"/>
<path d="M52.762 32.1605C51.7454 32.1605 50.868 31.9946 50.1297 31.6629C49.4021 31.3205 48.835 30.8283 48.4284 30.1863C48.0325 29.5336 47.8132 28.7419 47.7704 27.811C47.7597 27.3508 47.7543 26.864 47.7543 26.3504C47.7543 25.8261 47.7597 25.3285 47.7704 24.8577C47.8132 23.9482 48.0379 23.1778 48.4445 22.5465C48.8511 21.9153 49.4236 21.4338 50.1619 21.1021C50.9001 20.7704 51.7668 20.6045 52.762 20.6045C53.5644 20.6045 54.276 20.7061 54.8966 20.9094C55.5172 21.102 56.0361 21.3642 56.4535 21.6959C56.8814 22.0276 57.2078 22.3914 57.4325 22.7873C57.6572 23.1832 57.7749 23.5738 57.7856 23.9589C57.7856 24.0552 57.7482 24.1355 57.6732 24.1997C57.6091 24.2639 57.5288 24.296 57.4325 24.296H55.0892C54.9715 24.296 54.8806 24.28 54.8163 24.2479C54.7628 24.2051 54.7147 24.1462 54.6719 24.0713C54.597 23.9108 54.4846 23.745 54.3348 23.5737C54.1958 23.3918 53.9978 23.2367 53.741 23.1083C53.4949 22.9799 53.1686 22.9157 52.762 22.9157C52.1627 22.9157 51.6866 23.0762 51.3335 23.3972C50.9804 23.7182 50.7878 24.2318 50.7557 24.938C50.7236 25.8582 50.7236 26.7891 50.7557 27.7307C50.7878 28.4797 50.9858 29.0201 51.3496 29.3518C51.7134 29.6835 52.2002 29.8493 52.8101 29.8493C53.206 29.8493 53.5591 29.7798 53.8694 29.6407C54.1904 29.5015 54.4419 29.2875 54.6238 28.9987C54.8056 28.6991 54.8966 28.3192 54.8966 27.8591V27.5542H53.3879C53.2702 27.5542 53.1739 27.5167 53.099 27.4418C53.0241 27.3562 52.9867 27.2545 52.9867 27.1369V25.9492C52.9867 25.8315 53.0241 25.7352 53.099 25.6603C53.1739 25.5746 53.2702 25.5318 53.3879 25.5318H57.4325C57.5502 25.5318 57.6465 25.5746 57.7214 25.6603C57.7963 25.7352 57.8337 25.8315 57.8337 25.9492V27.7789C57.8337 28.6991 57.6251 29.4855 57.2078 30.1382C56.7905 30.7909 56.1966 31.2938 55.4263 31.6469C54.6666 31.9893 53.7785 32.1605 52.762 32.1605ZM63.4469 32.1605C62.5481 32.1605 61.7884 32.0161 61.1678 31.7271C60.5579 31.4382 60.0871 31.0263 59.7554 30.4913C59.4344 29.9456 59.2525 29.2982 59.2097 28.5493C59.199 28.3353 59.1936 28.0945 59.1936 27.827C59.1936 27.5488 59.199 27.3081 59.2097 27.1048C59.2525 26.3451 59.4451 25.6977 59.7875 25.1627C60.1299 24.6277 60.606 24.2158 61.2159 23.9269C61.8365 23.6379 62.5802 23.4935 63.4469 23.4935C64.3243 23.4935 65.0679 23.6379 65.6778 23.9269C66.2984 24.2158 66.7799 24.6277 67.1223 25.1627C67.4647 25.6977 67.6573 26.3451 67.7001 27.1048C67.7108 27.3081 67.7162 27.5488 67.7162 27.827C67.7162 28.0945 67.7108 28.3353 67.7001 28.5493C67.6573 29.2982 67.4701 29.9456 67.1384 30.4913C66.8174 31.0263 66.3466 31.4382 65.726 31.7271C65.1161 32.0161 64.3564 32.1605 63.4469 32.1605ZM63.4469 30.2024C63.9284 30.2024 64.2761 30.0579 64.4901 29.769C64.7148 29.4801 64.8432 29.0468 64.8753 28.469C64.886 28.3085 64.8914 28.0945 64.8914 27.827C64.8914 27.5595 64.886 27.3455 64.8753 27.185C64.8432 26.6179 64.7148 26.1899 64.4901 25.901C64.2761 25.6014 63.9284 25.4516 63.4469 25.4516C62.9868 25.4516 62.639 25.6014 62.4036 25.901C62.1789 26.1899 62.0559 26.6179 62.0345 27.185C62.0238 27.3455 62.0184 27.5595 62.0184 27.827C62.0184 28.0945 62.0238 28.3085 62.0345 28.469C62.0559 29.0468 62.1789 29.4801 62.4036 29.769C62.639 30.0579 62.9868 30.2024 63.4469 30.2024ZM73.2587 32.1605C72.3599 32.1605 71.6002 32.0161 70.9796 31.7271C70.3697 31.4382 69.8989 31.0263 69.5672 30.4913C69.2462 29.9456 69.0643 29.2982 69.0215 28.5493C69.0108 28.3353 69.0054 28.0945 69.0054 27.827C69.0054 27.5488 69.0108 27.3081 69.0215 27.1048C69.0643 26.3451 69.2569 25.6977 69.5993 25.1627C69.9417 24.6277 70.4178 24.2158 71.0277 23.9269C71.6483 23.6379 72.392 23.4935 73.2587 23.4935C74.1361 23.4935 74.8797 23.6379 75.4896 23.9269C76.1102 24.2158 76.5917 24.6277 76.9341 25.1627C77.2765 25.6977 77.4691 26.3451 77.5119 27.1048C77.5226 27.3081 77.528 27.5488 77.528 27.827C77.528 28.0945 77.5226 28.3353 77.5119 28.5493C77.4691 29.2982 77.2819 29.9456 76.9502 30.4913C76.6292 31.0263 76.1584 31.4382 75.5378 31.7271C74.9279 32.0161 74.1682 32.1605 73.2587 32.1605ZM73.2587 30.2024C73.7402 30.2024 74.0879 30.0579 74.3019 29.769C74.5266 29.4801 74.655 29.0468 74.6871 28.469C74.6978 28.3085 74.7032 28.0945 74.7032 27.827C74.7032 27.5595 74.6978 27.3455 74.6871 27.185C74.655 26.6179 74.5266 26.1899 74.3019 25.901C74.0879 25.6014 73.7402 25.4516 73.2587 25.4516C72.7986 25.4516 72.4508 25.6014 72.2154 25.901C71.9907 26.1899 71.8677 26.6179 71.8463 27.185C71.8356 27.3455 71.8302 27.5595 71.8302 27.827C71.8302 28.0945 71.8356 28.3085 71.8463 28.469C71.8677 29.0468 71.9907 29.4801 72.2154 29.769C72.4508 30.0579 72.7986 30.2024 73.2587 30.2024ZM83.2149 35.531C82.391 35.531 81.7062 35.424 81.1605 35.21C80.6255 34.996 80.1975 34.7392 79.8765 34.4396C79.5662 34.14 79.3415 33.8404 79.2024 33.5408C79.0633 33.2519 78.9884 33.0219 78.9777 32.8507C78.967 32.733 79.0045 32.6313 79.0901 32.5457C79.1757 32.4708 79.2773 32.4333 79.395 32.4333H81.4334C81.5404 32.4333 81.626 32.4601 81.6902 32.5136C81.7544 32.5671 81.8079 32.6527 81.8507 32.7704C81.9149 32.8881 81.9898 33.0058 82.0754 33.1235C82.161 33.2519 82.284 33.3589 82.4445 33.4445C82.6157 33.5301 82.8458 33.5729 83.1347 33.5729C83.4557 33.5729 83.7232 33.5194 83.9372 33.4124C84.1512 33.3161 84.3117 33.1503 84.4187 32.9149C84.5257 32.6902 84.5792 32.3852 84.5792 32V30.9247C84.3331 31.1921 84.0174 31.4115 83.6322 31.5827C83.247 31.7432 82.7816 31.8234 82.2359 31.8234C81.6902 31.8234 81.2087 31.7432 80.7914 31.5827C80.3741 31.4222 80.0263 31.1815 79.7481 30.8605C79.4699 30.5395 79.2506 30.1489 79.0901 29.6888C78.9403 29.2287 78.8493 28.6991 78.8172 28.0998C78.8065 27.8216 78.8065 27.5381 78.8172 27.2492C78.8493 26.6821 78.9403 26.1685 79.0901 25.7084C79.2399 25.2376 79.4539 24.8417 79.7321 24.5207C80.021 24.189 80.3741 23.9376 80.7914 23.7664C81.2087 23.5845 81.6902 23.4935 82.2359 23.4935C82.8137 23.4935 83.3059 23.6059 83.7125 23.8306C84.1298 24.0446 84.4722 24.3174 84.7397 24.6491V24.0552C84.7397 23.9483 84.7771 23.8573 84.852 23.7824C84.9269 23.6968 85.0232 23.654 85.1409 23.654H86.9867C87.1044 23.654 87.2007 23.6968 87.2756 23.7824C87.3612 23.8573 87.404 23.9483 87.404 24.0552V31.7753C87.404 32.5885 87.2381 33.2733 86.9064 33.8297C86.5854 34.3861 86.1093 34.8087 85.478 35.0976C84.8574 35.3866 84.103 35.531 83.2149 35.531ZM83.1026 29.737C83.445 29.737 83.7232 29.6621 83.9372 29.5123C84.1512 29.3624 84.3063 29.1698 84.4026 28.9344C84.5096 28.699 84.5685 28.4476 84.5792 28.1801C84.5899 28.0624 84.5952 27.8965 84.5952 27.6825C84.5952 27.4686 84.5899 27.3081 84.5792 27.201C84.5685 26.9228 84.5096 26.6661 84.4026 26.4307C84.3063 26.1953 84.1512 26.008 83.9372 25.8689C83.7232 25.7191 83.445 25.6442 83.1026 25.6442C82.7495 25.6442 82.4659 25.7191 82.2519 25.8689C82.0486 26.0187 81.8988 26.222 81.8025 26.4788C81.7169 26.7356 81.6634 27.0191 81.642 27.3295C81.6313 27.5648 81.6313 27.8056 81.642 28.0517C81.6634 28.362 81.7169 28.6456 81.8025 28.9024C81.8988 29.1591 82.0486 29.3624 82.2519 29.5123C82.4659 29.6621 82.7495 29.737 83.1026 29.737ZM89.6958 32C89.5781 32 89.4818 31.9626 89.4069 31.8877C89.332 31.8021 89.2945 31.7058 89.2945 31.5988V21.0057C89.2945 20.888 89.332 20.7918 89.4069 20.7169C89.4818 20.642 89.5781 20.6045 89.6958 20.6045H91.5897C91.7074 20.6045 91.8037 20.642 91.8786 20.7169C91.9535 20.7918 91.9909 20.888 91.9909 21.0057V31.5988C91.9909 31.7058 91.9535 31.8021 91.8786 31.8877C91.8037 31.9626 91.7074 32 91.5897 32H89.6958ZM97.7389 32.1605C96.4763 32.1605 95.4705 31.8181 94.7215 31.1333C93.9725 30.4485 93.582 29.432 93.5499 28.0838C93.5499 28.0089 93.5499 27.9126 93.5499 27.7949C93.5499 27.6772 93.5499 27.5863 93.5499 27.522C93.582 26.6768 93.7692 25.9545 94.1116 25.3553C94.4647 24.7454 94.9462 24.2853 95.5561 23.975C96.1767 23.654 96.899 23.4935 97.7229 23.4935C98.6645 23.4935 99.4402 23.6807 100.05 24.0552C100.671 24.4298 101.136 24.938 101.446 25.58C101.757 26.222 101.912 26.955 101.912 27.7789V28.1641C101.912 28.2817 101.874 28.378 101.8 28.4529C101.725 28.5278 101.628 28.5653 101.511 28.5653H96.3747C96.3747 28.576 96.3747 28.592 96.3747 28.6134C96.3747 28.6349 96.3747 28.6562 96.3747 28.6776C96.3854 28.988 96.4389 29.2715 96.5352 29.5283C96.6422 29.7851 96.792 29.9884 96.9846 30.1382C97.1879 30.288 97.434 30.3629 97.7229 30.3629C97.9369 30.3629 98.1134 30.3308 98.2525 30.2666C98.4023 30.1917 98.5254 30.1115 98.6217 30.0259C98.718 29.9296 98.7929 29.8493 98.8464 29.7851C98.9427 29.6674 99.0176 29.5979 99.0711 29.5764C99.1353 29.5443 99.2316 29.5283 99.36 29.5283H101.35C101.457 29.5283 101.543 29.5604 101.607 29.6246C101.682 29.6888 101.714 29.7744 101.703 29.8814C101.693 30.0633 101.602 30.2827 101.43 30.5394C101.259 30.7963 101.008 31.0531 100.676 31.3099C100.355 31.5559 99.9485 31.7592 99.4563 31.9197C98.9641 32.0803 98.3916 32.1605 97.7389 32.1605ZM96.3747 26.9763H99.0871V26.9442C99.0871 26.5911 99.0336 26.2915 98.9266 26.0454C98.8303 25.7887 98.6752 25.5907 98.4612 25.4516C98.2579 25.3125 98.0118 25.2429 97.7229 25.2429C97.4447 25.2429 97.2039 25.3125 97.0006 25.4516C96.7973 25.5907 96.6422 25.7887 96.5352 26.0454C96.4282 26.2915 96.3747 26.5911 96.3747 26.9442V26.9763ZM111.616 32.1605C110.611 32.1605 109.744 31.9946 109.016 31.6629C108.289 31.3313 107.722 30.8444 107.315 30.2024C106.919 29.5604 106.7 28.7633 106.657 27.811C106.646 27.3723 106.641 26.9015 106.641 26.3986C106.641 25.8956 106.646 25.4141 106.657 24.9541C106.7 24.0232 106.924 23.2314 107.331 22.5787C107.738 21.926 108.305 21.4338 109.032 21.1021C109.76 20.7704 110.621 20.6045 111.616 20.6045C112.323 20.6045 112.975 20.6955 113.575 20.8774C114.174 21.0485 114.698 21.3053 115.147 21.6477C115.597 21.9795 115.945 22.3861 116.191 22.8676C116.447 23.3383 116.581 23.8733 116.592 24.4726C116.603 24.5689 116.571 24.6491 116.496 24.7133C116.431 24.7775 116.351 24.8096 116.255 24.8096H114.088C113.949 24.8096 113.842 24.7829 113.767 24.7294C113.692 24.6652 113.628 24.5528 113.575 24.3923C113.425 23.8252 113.179 23.44 112.836 23.2367C112.505 23.0227 112.093 22.9157 111.6 22.9157C111.012 22.9157 110.546 23.0815 110.204 23.4132C109.862 23.7343 109.674 24.2746 109.642 25.0343C109.61 25.9117 109.61 26.8105 109.642 27.7307C109.674 28.4904 109.862 29.0361 110.204 29.3678C110.546 29.6888 111.012 29.8493 111.6 29.8493C112.093 29.8493 112.51 29.7423 112.852 29.5283C113.195 29.3143 113.435 28.9291 113.575 28.3727C113.617 28.2122 113.676 28.1052 113.751 28.0517C113.837 27.9875 113.949 27.9554 114.088 27.9554H116.255C116.351 27.9554 116.431 27.9875 116.496 28.0517C116.571 28.1159 116.603 28.1962 116.592 28.2925C116.581 28.8916 116.447 29.432 116.191 29.9135C115.945 30.3843 115.597 30.7909 115.147 31.1333C114.698 31.465 114.174 31.7218 113.575 31.9037C112.975 32.0749 112.323 32.1605 111.616 32.1605ZM118.504 32C118.387 32 118.29 31.9626 118.215 31.8877C118.14 31.8021 118.103 31.7058 118.103 31.5988V21.0057C118.103 20.888 118.14 20.7918 118.215 20.7169C118.29 20.642 118.387 20.6045 118.504 20.6045H120.559C120.676 20.6045 120.773 20.642 120.848 20.7169C120.922 20.7918 120.96 20.888 120.96 21.0057V24.5849C121.249 24.2532 121.602 23.991 122.019 23.7984C122.447 23.5951 122.939 23.4935 123.496 23.4935C124.116 23.4935 124.667 23.6326 125.149 23.9108C125.641 24.189 126.026 24.5956 126.305 25.1306C126.583 25.6656 126.722 26.329 126.722 27.1208V31.5988C126.722 31.7058 126.684 31.8021 126.61 31.8877C126.535 31.9626 126.438 32 126.321 32H124.25C124.143 32 124.047 31.9626 123.961 31.8877C123.886 31.8021 123.849 31.7058 123.849 31.5988V27.2171C123.849 26.7142 123.726 26.329 123.48 26.0615C123.244 25.7833 122.897 25.6442 122.437 25.6442C121.987 25.6442 121.629 25.7833 121.361 26.0615C121.094 26.329 120.96 26.7142 120.96 27.2171V31.5988C120.96 31.7058 120.922 31.8021 120.848 31.8877C120.773 31.9626 120.676 32 120.559 32H118.504ZM128.943 32C128.825 32 128.729 31.9626 128.654 31.8877C128.579 31.8021 128.542 31.7058 128.542 31.5988V24.0552C128.542 23.9483 128.579 23.8573 128.654 23.7824C128.729 23.6968 128.825 23.654 128.943 23.654H130.789C130.906 23.654 131.003 23.6968 131.078 23.7824C131.163 23.8573 131.206 23.9483 131.206 24.0552V24.6973C131.484 24.3655 131.821 24.1087 132.217 23.9269C132.624 23.7449 133.079 23.654 133.581 23.654H134.288C134.405 23.654 134.502 23.6914 134.577 23.7664C134.651 23.8412 134.689 23.9375 134.689 24.0552V25.7084C134.689 25.8154 134.651 25.9117 134.577 25.9973C134.502 26.0722 134.405 26.1097 134.288 26.1097H132.731C132.292 26.1097 131.95 26.2327 131.704 26.4788C131.468 26.7142 131.351 27.0512 131.351 27.4899V31.5988C131.351 31.7058 131.308 31.8021 131.222 31.8877C131.147 31.9626 131.051 32 130.933 32H128.943ZM139.716 32.1605C138.817 32.1605 138.057 32.0161 137.437 31.7271C136.827 31.4382 136.356 31.0263 136.024 30.4913C135.703 29.9456 135.521 29.2982 135.479 28.5493C135.468 28.3353 135.462 28.0945 135.462 27.827C135.462 27.5488 135.468 27.3081 135.479 27.1048C135.521 26.3451 135.714 25.6977 136.056 25.1627C136.399 24.6277 136.875 24.2158 137.485 23.9269C138.105 23.6379 138.849 23.4935 139.716 23.4935C140.593 23.4935 141.337 23.6379 141.947 23.9269C142.567 24.2158 143.049 24.6277 143.391 25.1627C143.734 25.6977 143.926 26.3451 143.969 27.1048C143.98 27.3081 143.985 27.5488 143.985 27.827C143.985 28.0945 143.98 28.3353 143.969 28.5493C143.926 29.2982 143.739 29.9456 143.407 30.4913C143.086 31.0263 142.615 31.4382 141.995 31.7271C141.385 32.0161 140.625 32.1605 139.716 32.1605ZM139.716 30.2024C140.197 30.2024 140.545 30.0579 140.759 29.769C140.984 29.4801 141.112 29.0468 141.144 28.469C141.155 28.3085 141.16 28.0945 141.16 27.827C141.16 27.5595 141.155 27.3455 141.144 27.185C141.112 26.6179 140.984 26.1899 140.759 25.901C140.545 25.6014 140.197 25.4516 139.716 25.4516C139.256 25.4516 138.908 25.6014 138.672 25.901C138.448 26.1899 138.325 26.6179 138.303 27.185C138.293 27.3455 138.287 27.5595 138.287 27.827C138.287 28.0945 138.293 28.3085 138.303 28.469C138.325 29.0468 138.448 29.4801 138.672 29.769C138.908 30.0579 139.256 30.2024 139.716 30.2024ZM145.98 32C145.863 32 145.766 31.9626 145.692 31.8877C145.617 31.8021 145.579 31.7058 145.579 31.5988V24.0552C145.579 23.9375 145.617 23.8412 145.692 23.7664C145.766 23.6914 145.863 23.654 145.98 23.654H147.73C147.848 23.654 147.944 23.6914 148.019 23.7664C148.094 23.8412 148.131 23.9375 148.131 24.0552V24.6009C148.345 24.312 148.645 24.0606 149.03 23.8466C149.415 23.6219 149.87 23.5042 150.394 23.4935C151.635 23.4614 152.486 23.9215 152.946 24.8738C153.192 24.4672 153.54 24.1355 153.989 23.8787C154.45 23.6219 154.952 23.4935 155.498 23.4935C156.055 23.4935 156.552 23.6219 156.991 23.8787C157.44 24.1248 157.799 24.51 158.066 25.0343C158.334 25.5479 158.467 26.2167 158.467 27.0405V31.5988C158.467 31.7058 158.43 31.8021 158.355 31.8877C158.28 31.9626 158.184 32 158.066 32H156.204C156.087 32 155.985 31.9626 155.899 31.8877C155.824 31.8021 155.787 31.7058 155.787 31.5988V27.1529C155.787 26.7784 155.734 26.4842 155.627 26.2701C155.52 26.0454 155.375 25.8849 155.193 25.7886C155.011 25.6923 154.803 25.6442 154.567 25.6442C154.375 25.6442 154.182 25.6923 153.989 25.7886C153.808 25.8849 153.658 26.0454 153.54 26.2701C153.433 26.4842 153.38 26.7784 153.38 27.1529V31.5988C153.38 31.7058 153.342 31.8021 153.267 31.8877C153.192 31.9626 153.096 32 152.978 32H151.116C150.999 32 150.902 31.9626 150.828 31.8877C150.753 31.8021 150.715 31.7058 150.715 31.5988V27.1529C150.715 26.7784 150.656 26.4842 150.539 26.2701C150.421 26.0454 150.271 25.8849 150.089 25.7886C149.907 25.6923 149.709 25.6442 149.495 25.6442C149.292 25.6442 149.094 25.6923 148.902 25.7886C148.72 25.8849 148.57 26.0454 148.452 26.2701C148.345 26.4842 148.292 26.7731 148.292 27.1369V31.5988C148.292 31.7058 148.249 31.8021 148.163 31.8877C148.088 31.9626 147.997 32 147.89 32H145.98ZM164.133 32.1605C162.871 32.1605 161.865 31.8181 161.116 31.1333C160.367 30.4485 159.976 29.432 159.944 28.0838C159.944 28.0089 159.944 27.9126 159.944 27.7949C159.944 27.6772 159.944 27.5863 159.944 27.522C159.976 26.6768 160.164 25.9545 160.506 25.3553C160.859 24.7454 161.341 24.2853 161.95 23.975C162.571 23.654 163.293 23.4935 164.117 23.4935C165.059 23.4935 165.835 23.6807 166.444 24.0552C167.065 24.4298 167.531 24.938 167.841 25.58C168.151 26.222 168.306 26.955 168.306 27.7789V28.1641C168.306 28.2817 168.269 28.378 168.194 28.4529C168.119 28.5278 168.023 28.5653 167.905 28.5653H162.769C162.769 28.576 162.769 28.592 162.769 28.6134C162.769 28.6349 162.769 28.6562 162.769 28.6776C162.78 28.988 162.833 29.2715 162.93 29.5283C163.037 29.7851 163.186 29.9884 163.379 30.1382C163.582 30.288 163.828 30.3629 164.117 30.3629C164.331 30.3629 164.508 30.3308 164.647 30.2666C164.797 30.1917 164.92 30.1115 165.016 30.0259C165.112 29.9296 165.187 29.8493 165.241 29.7851C165.337 29.6674 165.412 29.5979 165.465 29.5764C165.53 29.5443 165.626 29.5283 165.754 29.5283H167.745C167.852 29.5283 167.937 29.5604 168.001 29.6246C168.076 29.6888 168.108 29.7744 168.098 29.8814C168.087 30.0633 167.996 30.2827 167.825 30.5394C167.654 30.7963 167.402 31.0531 167.07 31.3099C166.749 31.5559 166.343 31.7592 165.851 31.9197C165.358 32.0803 164.786 32.1605 164.133 32.1605ZM162.769 26.9763H165.481V26.9442C165.481 26.5911 165.428 26.2915 165.321 26.0454C165.225 25.7887 165.07 25.5907 164.856 25.4516C164.652 25.3125 164.406 25.2429 164.117 25.2429C163.839 25.2429 163.598 25.3125 163.395 25.4516C163.192 25.5907 163.037 25.7887 162.93 26.0454C162.823 26.2915 162.769 26.5911 162.769 26.9442V26.9763Z" fill="white"/>
<path d="M47.9955 16C47.9291 16 47.8779 15.9819 47.8417 15.9457C47.8055 15.9035 47.7874 15.8522 47.7874 15.7918V9.8822C47.7874 9.81583 47.8055 9.76455 47.8417 9.72835C47.8779 9.68612 47.9291 9.665 47.9955 9.665H50.0499C50.6713 9.665 51.1721 9.75852 51.5522 9.94555C51.9323 10.1326 52.2098 10.4101 52.3848 10.7781C52.5597 11.1401 52.6502 11.5866 52.6563 12.1175C52.6623 12.389 52.6653 12.6274 52.6653 12.8325C52.6653 13.0376 52.6623 13.2729 52.6563 13.5384C52.6442 14.0935 52.5507 14.555 52.3757 14.923C52.2068 15.285 51.9353 15.5565 51.5612 15.7375C51.1932 15.9125 50.7045 16 50.0951 16H47.9955ZM48.6743 15.2307H50.0499C50.4662 15.2307 50.798 15.1734 51.0454 15.0588C51.2927 14.9442 51.4707 14.7601 51.5793 14.5067C51.6939 14.2533 51.7543 13.9185 51.7603 13.5022C51.7724 13.3212 51.7784 13.1643 51.7784 13.0316C51.7784 12.8928 51.7784 12.7571 51.7784 12.6243C51.7784 12.4856 51.7724 12.3287 51.7603 12.1537C51.7482 11.5685 51.6095 11.1371 51.344 10.8596C51.0785 10.576 50.6321 10.4342 50.0046 10.4342H48.6743V15.2307ZM55.8369 16.0905C55.3784 16.0905 54.9953 16.003 54.6876 15.828C54.3799 15.6531 54.1446 15.4117 53.9817 15.104C53.8188 14.7903 53.7283 14.4343 53.7102 14.0361C53.7041 13.9336 53.7011 13.8039 53.7011 13.647C53.7011 13.4841 53.7041 13.3544 53.7102 13.2578C53.7283 12.8536 53.8188 12.4976 53.9817 12.1899C54.1506 11.8822 54.3889 11.6409 54.6966 11.4659C55.0043 11.291 55.3844 11.2035 55.8369 11.2035C56.2894 11.2035 56.6695 11.291 56.9772 11.4659C57.2849 11.6409 57.5202 11.8822 57.6831 12.1899C57.852 12.4976 57.9456 12.8536 57.9637 13.2578C57.9697 13.3544 57.9727 13.4841 57.9727 13.647C57.9727 13.8039 57.9697 13.9336 57.9637 14.0361C57.9456 14.4343 57.8551 14.7903 57.6922 15.104C57.5293 15.4117 57.294 15.6531 56.9863 15.828C56.6786 16.003 56.2954 16.0905 55.8369 16.0905ZM55.8369 15.3936C56.211 15.3936 56.5096 15.276 56.7329 15.0407C56.9561 14.7994 57.0768 14.4494 57.0949 13.9909C57.1009 13.9004 57.1039 13.7858 57.1039 13.647C57.1039 13.5082 57.1009 13.3936 57.0949 13.3031C57.0768 12.8446 56.9561 12.4976 56.7329 12.2623C56.5096 12.021 56.211 11.9003 55.8369 11.9003C55.4628 11.9003 55.1612 12.021 54.9319 12.2623C54.7087 12.4976 54.591 12.8446 54.579 13.3031C54.5729 13.3936 54.5699 13.5082 54.5699 13.647C54.5699 13.7858 54.5729 13.9004 54.579 13.9909C54.591 14.4494 54.7087 14.7994 54.9319 15.0407C55.1612 15.276 55.4628 15.3936 55.8369 15.3936ZM60.2311 16C60.1527 16 60.0923 15.9819 60.0501 15.9457C60.0079 15.9035 59.9717 15.8461 59.9415 15.7737L58.6564 11.5745C58.6443 11.5444 58.6383 11.5142 58.6383 11.484C58.6383 11.4297 58.6564 11.3845 58.6926 11.3483C58.7348 11.3121 58.7801 11.294 58.8284 11.294H59.2266C59.2929 11.294 59.3442 11.3121 59.3804 11.3483C59.4166 11.3845 59.4407 11.4177 59.4528 11.4478L60.4574 14.8597L61.5343 11.484C61.5464 11.4418 61.5705 11.3996 61.6067 11.3573C61.6489 11.3151 61.7093 11.294 61.7877 11.294H62.0954C62.1738 11.294 62.2342 11.3151 62.2764 11.3573C62.3186 11.3996 62.3428 11.4418 62.3488 11.484L63.4258 14.8597L64.4303 11.4478C64.4363 11.4177 64.4575 11.3845 64.4937 11.3483C64.5299 11.3121 64.5811 11.294 64.6475 11.294H65.0548C65.103 11.294 65.1453 11.3121 65.1815 11.3483C65.2177 11.3845 65.2358 11.4297 65.2358 11.484C65.2358 11.5142 65.2297 11.5444 65.2177 11.5745L63.9416 15.7737C63.9175 15.8461 63.8843 15.9035 63.8421 15.9457C63.7998 15.9819 63.7335 16 63.643 16H63.29C63.2116 16 63.1452 15.9819 63.0909 15.9457C63.0426 15.9035 63.0095 15.8461 62.9914 15.7737L61.9416 12.5338L60.8918 15.7737C60.8676 15.8461 60.8314 15.9035 60.7832 15.9457C60.7349 15.9819 60.6685 16 60.5841 16H60.2311ZM66.4463 16C66.3859 16 66.3346 15.9819 66.2924 15.9457C66.2562 15.9035 66.2381 15.8522 66.2381 15.7918V11.5021C66.2381 11.4418 66.2562 11.3935 66.2924 11.3573C66.3346 11.3151 66.3859 11.294 66.4463 11.294H66.8716C66.9319 11.294 66.9802 11.3151 67.0164 11.3573C67.0586 11.3935 67.0798 11.4418 67.0798 11.5021V11.9003C67.2366 11.6952 67.4327 11.5293 67.668 11.4026C67.9093 11.2699 68.217 11.2035 68.5911 11.2035C68.9833 11.2035 69.3151 11.291 69.5866 11.4659C69.8641 11.6349 70.0723 11.8732 70.2111 12.1809C70.3559 12.4826 70.4283 12.8355 70.4283 13.2397V15.7918C70.4283 15.8522 70.4071 15.9035 70.3649 15.9457C70.3287 15.9819 70.2804 16 70.2201 16H69.7676C69.7073 16 69.656 15.9819 69.6138 15.9457C69.5776 15.9035 69.5595 15.8522 69.5595 15.7918V13.285C69.5595 12.8627 69.4569 12.5338 69.2518 12.2985C69.0466 12.0572 68.745 11.9365 68.3468 11.9365C67.9727 11.9365 67.671 12.0572 67.4418 12.2985C67.2185 12.5338 67.1069 12.8627 67.1069 13.285V15.7918C67.1069 15.8522 67.0858 15.9035 67.0436 15.9457C67.0074 15.9819 66.9591 16 66.8988 16H66.4463ZM71.9436 16C71.8833 16 71.832 15.9819 71.7898 15.9457C71.7536 15.9035 71.7355 15.8522 71.7355 15.7918V9.78265C71.7355 9.72232 71.7536 9.67405 71.7898 9.63785C71.832 9.59562 71.8833 9.5745 71.9436 9.5745H72.369C72.4354 9.5745 72.4866 9.59562 72.5228 9.63785C72.559 9.67405 72.5771 9.72232 72.5771 9.78265V15.7918C72.5771 15.8522 72.559 15.9035 72.5228 15.9457C72.4866 15.9819 72.4354 16 72.369 16H71.9436ZM75.8547 16.0905C75.3962 16.0905 75.0131 16.003 74.7054 15.828C74.3977 15.6531 74.1624 15.4117 73.9995 15.104C73.8366 14.7903 73.7461 14.4343 73.728 14.0361C73.7219 13.9336 73.7189 13.8039 73.7189 13.647C73.7189 13.4841 73.7219 13.3544 73.728 13.2578C73.7461 12.8536 73.8366 12.4976 73.9995 12.1899C74.1684 11.8822 74.4067 11.6409 74.7144 11.4659C75.0221 11.291 75.4022 11.2035 75.8547 11.2035C76.3072 11.2035 76.6873 11.291 76.995 11.4659C77.3027 11.6409 77.538 11.8822 77.7009 12.1899C77.8699 12.4976 77.9634 12.8536 77.9815 13.2578C77.9875 13.3544 77.9905 13.4841 77.9905 13.647C77.9905 13.8039 77.9875 13.9336 77.9815 14.0361C77.9634 14.4343 77.8729 14.7903 77.71 15.104C77.5471 15.4117 77.3118 15.6531 77.0041 15.828C76.6964 16.003 76.3133 16.0905 75.8547 16.0905ZM75.8547 15.3936C76.2288 15.3936 76.5274 15.276 76.7507 15.0407C76.9739 14.7994 77.0946 14.4494 77.1127 13.9909C77.1187 13.9004 77.1217 13.7858 77.1217 13.647C77.1217 13.5082 77.1187 13.3936 77.1127 13.3031C77.0946 12.8446 76.9739 12.4976 76.7507 12.2623C76.5274 12.021 76.2288 11.9003 75.8547 11.9003C75.4807 11.9003 75.179 12.021 74.9497 12.2623C74.7265 12.4976 74.6088 12.8446 74.5968 13.3031C74.5907 13.3936 74.5877 13.5082 74.5877 13.647C74.5877 13.7858 74.5907 13.9004 74.5968 13.9909C74.6088 14.4494 74.7265 14.7994 74.9497 15.0407C75.179 15.276 75.4807 15.3936 75.8547 15.3936ZM80.436 16.0905C80.1343 16.0905 79.8598 16.0302 79.6125 15.9095C79.3651 15.7888 79.166 15.6259 79.0152 15.4208C78.8643 15.2157 78.7889 14.9834 78.7889 14.7239C78.7889 14.3076 78.9578 13.9758 79.2957 13.7284C79.6336 13.4811 80.074 13.3182 80.617 13.2397L81.9655 13.0497V12.7872C81.9655 12.4976 81.881 12.2714 81.7121 12.1085C81.5492 11.9456 81.2807 11.8641 80.9066 11.8641C80.6411 11.8641 80.4239 11.9184 80.255 12.027C80.0861 12.1356 79.9684 12.2744 79.9021 12.4433C79.8659 12.5338 79.8025 12.5791 79.712 12.5791H79.3048C79.2384 12.5791 79.1871 12.561 79.1509 12.5248C79.1207 12.4826 79.1057 12.4343 79.1057 12.38C79.1057 12.2895 79.1388 12.1779 79.2052 12.0451C79.2776 11.9124 79.3862 11.7827 79.531 11.656C79.6758 11.5293 79.8598 11.4237 80.0831 11.3392C80.3123 11.2487 80.5899 11.2035 80.9157 11.2035C81.2777 11.2035 81.5823 11.2518 81.8297 11.3483C82.0771 11.4388 82.2701 11.5625 82.4089 11.7193C82.5537 11.8762 82.6563 12.0542 82.7166 12.2533C82.783 12.4524 82.8162 12.6545 82.8162 12.8596V15.7918C82.8162 15.8522 82.795 15.9035 82.7528 15.9457C82.7166 15.9819 82.6683 16 82.608 16H82.1917C82.1253 16 82.0741 15.9819 82.0379 15.9457C82.0017 15.9035 81.9836 15.8522 81.9836 15.7918V15.4027C81.9051 15.5113 81.7995 15.6199 81.6668 15.7285C81.5341 15.8311 81.3682 15.9185 81.1691 15.9909C80.97 16.0573 80.7256 16.0905 80.436 16.0905ZM80.6261 15.4117C80.8734 15.4117 81.0997 15.3605 81.3048 15.2579C81.5099 15.1493 81.6698 14.9834 81.7845 14.7601C81.9051 14.5369 81.9655 14.2564 81.9655 13.9185V13.6651L80.9157 13.8189C80.4873 13.8793 80.1645 13.9818 79.9473 14.1266C79.7301 14.2654 79.6215 14.4434 79.6215 14.6606C79.6215 14.8295 79.6698 14.9713 79.7663 15.0859C79.8689 15.1945 79.9956 15.276 80.1464 15.3303C80.3033 15.3846 80.4632 15.4117 80.6261 15.4117ZM85.8367 16.0905C85.5048 16.0905 85.2182 16.0332 84.9769 15.9185C84.7356 15.7979 84.5365 15.638 84.3796 15.4389C84.2288 15.2338 84.1141 15.0015 84.0357 14.742C83.9633 14.4826 83.9211 14.2081 83.909 13.9185C83.903 13.822 83.9 13.7315 83.9 13.647C83.9 13.5625 83.903 13.472 83.909 13.3755C83.9211 13.0919 83.9633 12.8204 84.0357 12.561C84.1141 12.3016 84.2288 12.0693 84.3796 11.8641C84.5365 11.659 84.7356 11.4991 84.9769 11.3845C85.2182 11.2638 85.5048 11.2035 85.8367 11.2035C86.1926 11.2035 86.4883 11.2668 86.7236 11.3935C86.9589 11.5202 87.1519 11.6771 87.3028 11.8641V9.78265C87.3028 9.72232 87.3209 9.67405 87.3571 9.63785C87.3993 9.59562 87.4506 9.5745 87.5109 9.5745H87.9453C88.0056 9.5745 88.0539 9.59562 88.0901 9.63785C88.1323 9.67405 88.1535 9.72232 88.1535 9.78265V15.7918C88.1535 15.8522 88.1323 15.9035 88.0901 15.9457C88.0539 15.9819 88.0056 16 87.9453 16H87.5381C87.4717 16 87.4204 15.9819 87.3842 15.9457C87.348 15.9035 87.3299 15.8522 87.3299 15.7918V15.4117C87.1791 15.6048 86.983 15.7677 86.7417 15.9004C86.5003 16.0272 86.1987 16.0905 85.8367 16.0905ZM86.0267 15.3574C86.3284 15.3574 86.5697 15.2881 86.7507 15.1493C86.9317 15.0105 87.0675 14.8356 87.158 14.6244C87.2485 14.4072 87.2967 14.187 87.3028 13.9637C87.3088 13.8672 87.3118 13.7526 87.3118 13.6198C87.3118 13.4811 87.3088 13.3634 87.3028 13.2669C87.2967 13.0557 87.2454 12.8476 87.1489 12.6424C87.0584 12.4373 86.9196 12.2684 86.7326 12.1356C86.5516 12.0029 86.3163 11.9365 86.0267 11.9365C85.719 11.9365 85.4747 12.0059 85.2937 12.1447C85.1127 12.2774 84.9829 12.4554 84.9045 12.6786C84.8261 12.8958 84.7808 13.1311 84.7688 13.3845C84.7627 13.5595 84.7627 13.7345 84.7688 13.9094C84.7808 14.1628 84.8261 14.4012 84.9045 14.6244C84.9829 14.8416 85.1127 15.0196 85.2937 15.1583C85.4747 15.2911 85.719 15.3574 86.0267 15.3574ZM92.2286 16C92.1682 16 92.117 15.9819 92.0747 15.9457C92.0385 15.9035 92.0204 15.8522 92.0204 15.7918V12.018H91.2512C91.1908 12.018 91.1396 11.9999 91.0973 11.9637C91.0611 11.9215 91.043 11.8702 91.043 11.8098V11.5021C91.043 11.4418 91.0611 11.3935 91.0973 11.3573C91.1396 11.3151 91.1908 11.294 91.2512 11.294H92.0204V10.8415C92.0204 10.5338 92.0717 10.2653 92.1743 10.036C92.2768 9.80075 92.4397 9.61975 92.663 9.49305C92.8922 9.36635 93.1969 9.303 93.577 9.303H94.12C94.1804 9.303 94.2286 9.32412 94.2648 9.36635C94.3071 9.40255 94.3282 9.45082 94.3282 9.51115V9.81885C94.3282 9.87918 94.3071 9.93047 94.2648 9.9727C94.2286 10.0089 94.1804 10.027 94.12 10.027H93.5951C93.3116 10.027 93.1185 10.1024 93.0159 10.2532C92.9134 10.398 92.8621 10.6092 92.8621 10.8867V11.294H94.0295C94.0899 11.294 94.1381 11.3151 94.1743 11.3573C94.2166 11.3935 94.2377 11.4418 94.2377 11.5021V11.8098C94.2377 11.8702 94.2166 11.9215 94.1743 11.9637C94.1381 11.9999 94.0899 12.018 94.0295 12.018H92.8621V15.7918C92.8621 15.8522 92.841 15.9035 92.7987 15.9457C92.7625 15.9819 92.7143 16 92.6539 16H92.2286ZM95.2401 16C95.1798 16 95.1285 15.9819 95.0863 15.9457C95.0501 15.9035 95.032 15.8522 95.032 15.7918V11.5112C95.032 11.4509 95.0501 11.3996 95.0863 11.3573C95.1285 11.3151 95.1798 11.294 95.2401 11.294H95.6564C95.7167 11.294 95.768 11.3151 95.8103 11.3573C95.8525 11.3996 95.8736 11.4509 95.8736 11.5112V11.9094C95.9943 11.7043 96.1602 11.5504 96.3714 11.4478C96.5825 11.3453 96.8389 11.294 97.1406 11.294H97.4936C97.5539 11.294 97.6022 11.3151 97.6384 11.3573C97.6806 11.3935 97.7017 11.4418 97.7017 11.5021V11.8732C97.7017 11.9335 97.6806 11.9818 97.6384 12.018C97.6022 12.0542 97.5539 12.0723 97.4936 12.0723H96.9506C96.6248 12.0723 96.3683 12.1688 96.1813 12.3619C95.9943 12.5489 95.9008 12.8053 95.9008 13.1311V15.7918C95.9008 15.8522 95.8796 15.9035 95.8374 15.9457C95.7952 15.9819 95.7439 16 95.6836 16H95.2401ZM100.309 16.0905C99.8506 16.0905 99.4675 16.003 99.1598 15.828C98.8521 15.6531 98.6168 15.4117 98.4539 15.104C98.291 14.7903 98.2005 14.4343 98.1824 14.0361C98.1764 13.9336 98.1734 13.8039 98.1734 13.647C98.1734 13.4841 98.1764 13.3544 98.1824 13.2578C98.2005 12.8536 98.291 12.4976 98.4539 12.1899C98.6229 11.8822 98.8612 11.6409 99.1689 11.4659C99.4766 11.291 99.8567 11.2035 100.309 11.2035C100.762 11.2035 101.142 11.291 101.449 11.4659C101.757 11.6409 101.992 11.8822 102.155 12.1899C102.324 12.4976 102.418 12.8536 102.436 13.2578C102.442 13.3544 102.445 13.4841 102.445 13.647C102.445 13.8039 102.442 13.9336 102.436 14.0361C102.418 14.4343 102.327 14.7903 102.164 15.104C102.002 15.4117 101.766 15.6531 101.459 15.828C101.151 16.003 100.768 16.0905 100.309 16.0905ZM100.309 15.3936C100.683 15.3936 100.982 15.276 101.205 15.0407C101.428 14.7994 101.549 14.4494 101.567 13.9909C101.573 13.9004 101.576 13.7858 101.576 13.647C101.576 13.5082 101.573 13.3936 101.567 13.3031C101.549 12.8446 101.428 12.4976 101.205 12.2623C100.982 12.021 100.683 11.9003 100.309 11.9003C99.9351 11.9003 99.6334 12.021 99.4042 12.2623C99.1809 12.4976 99.0633 12.8446 99.0512 13.3031C99.0452 13.3936 99.0422 13.5082 99.0422 13.647C99.0422 13.7858 99.0452 13.9004 99.0512 13.9909C99.0633 14.4494 99.1809 14.7994 99.4042 15.0407C99.6334 15.276 99.9351 15.3936 100.309 15.3936ZM103.786 16C103.726 16 103.675 15.9819 103.632 15.9457C103.596 15.9035 103.578 15.8522 103.578 15.7918V11.5021C103.578 11.4418 103.596 11.3935 103.632 11.3573C103.675 11.3151 103.726 11.294 103.786 11.294H104.194C104.254 11.294 104.302 11.3151 104.338 11.3573C104.381 11.3935 104.402 11.4418 104.402 11.5021V11.8189C104.541 11.6319 104.715 11.484 104.927 11.3754C105.138 11.2608 105.391 11.2035 105.687 11.2035C106.369 11.1975 106.851 11.475 107.135 12.0361C107.274 11.7827 107.476 11.5806 107.741 11.4297C108.007 11.2789 108.308 11.2035 108.646 11.2035C108.96 11.2035 109.243 11.2759 109.497 11.4207C109.756 11.5655 109.958 11.7857 110.103 12.0813C110.254 12.3709 110.329 12.736 110.329 13.1764V15.7918C110.329 15.8522 110.308 15.9035 110.266 15.9457C110.23 15.9819 110.182 16 110.121 16H109.696C109.636 16 109.584 15.9819 109.542 15.9457C109.506 15.9035 109.488 15.8522 109.488 15.7918V13.2578C109.488 12.92 109.44 12.6545 109.343 12.4614C109.247 12.2684 109.117 12.1326 108.954 12.0542C108.791 11.9758 108.613 11.9365 108.42 11.9365C108.263 11.9365 108.103 11.9758 107.94 12.0542C107.777 12.1326 107.642 12.2684 107.533 12.4614C107.43 12.6545 107.379 12.92 107.379 13.2578V15.7918C107.379 15.8522 107.358 15.9035 107.316 15.9457C107.28 15.9819 107.231 16 107.171 16H106.746C106.685 16 106.634 15.9819 106.592 15.9457C106.556 15.9035 106.538 15.8522 106.538 15.7918V13.2578C106.538 12.92 106.486 12.6545 106.384 12.4614C106.281 12.2684 106.148 12.1326 105.985 12.0542C105.823 11.9758 105.651 11.9365 105.47 11.9365C105.313 11.9365 105.153 11.9758 104.99 12.0542C104.827 12.1326 104.691 12.2684 104.583 12.4614C104.48 12.6545 104.429 12.917 104.429 13.2488V15.7918C104.429 15.8522 104.408 15.9035 104.366 15.9457C104.329 15.9819 104.281 16 104.221 16H103.786Z" fill="white" fill-opacity="0.7"/>
<path d="M19.5151 21.0003C19.5151 23.4732 21.527 25.4849 23.9999 25.4849C26.4727 25.4849 28.4844 23.4731 28.4844 21.0003C28.4844 18.5275 26.4727 16.5156 23.9999 16.5156C21.527 16.5156 19.5151 18.5275 19.5151 21.0003Z" fill="white"/>
<path d="M34.3266 15.0802C34.3616 15.0187 34.3609 14.9433 34.3248 14.8824C33.2802 13.1231 31.7937 11.6494 30.0258 10.6207C28.2038 9.56042 26.12 9 24.0001 9C20.3312 9 16.9121 10.6465 14.6192 13.5173C14.5686 13.5805 14.562 13.6683 14.6026 13.7384L17.9807 19.5893C18.0161 19.6506 18.0814 19.6876 18.1509 19.6876C18.1598 19.6876 18.1687 19.687 18.1776 19.6858C18.2568 19.675 18.3215 19.6174 18.3415 19.5401C19.0076 16.9592 21.3345 15.1567 24.0001 15.1567C24.1655 15.1567 24.3363 15.1642 24.508 15.1789C24.5136 15.1794 24.5193 15.1796 24.5249 15.1796H34.1556C34.2264 15.1796 34.2917 15.1417 34.3266 15.0802Z" fill="white"/>
<path d="M25.7732 26.6983C25.7244 26.6351 25.6424 26.6079 25.565 26.6293C25.0569 26.7708 24.5304 26.8425 24 26.8425C21.7463 26.8425 19.6691 25.5207 18.7081 23.4751C18.7058 23.4701 18.7032 23.4652 18.7004 23.4603L13.8815 15.114C13.8464 15.053 13.7814 15.0156 13.7112 15.0156C13.7108 15.0156 13.7105 15.0156 13.7101 15.0156C13.6395 15.016 13.5744 15.0542 13.5398 15.1157C12.5325 16.9031 12 18.9376 12 20.9993C12 23.8915 13.0434 26.6851 14.938 28.8657C16.8138 31.0245 19.3962 32.4452 22.2097 32.8662C22.2194 32.8677 22.2292 32.8683 22.2389 32.8683C22.3084 32.8683 22.3737 32.8313 22.4092 32.77L25.7881 26.9173C25.8281 26.848 25.8222 26.7615 25.7732 26.6983Z" fill="white"/>
<path d="M34.9911 16.4922H28.2259C28.146 16.4922 28.074 16.5406 28.0438 16.6145C28.0136 16.6885 28.0312 16.7735 28.0882 16.8294C29.2202 17.939 29.8435 19.4201 29.8435 20.9999C29.8435 22.1958 29.4827 23.3467 28.7999 24.3282C28.7967 24.3328 28.7938 24.3374 28.7911 24.3422L23.9638 32.703C23.9285 32.7643 23.9287 32.8397 23.9644 32.9008C23.9997 32.9611 24.0644 32.9981 24.1342 32.9981C24.1349 32.9981 24.1357 32.9981 24.1364 32.9981C27.3131 32.9627 30.294 31.6989 32.53 29.4397C34.7679 27.1786 36.0003 24.1812 36.0003 20.9999C36.0003 19.4877 35.7223 18.0132 35.1742 16.6171C35.1446 16.5417 35.072 16.4922 34.9911 16.4922Z" fill="white"/>
</g>
</svg>
