<svg width="191" height="44" viewBox="0 0 191 44" fill="none" xmlns="http://www.w3.org/2000/svg">
<mask id="mask0_1443_5562" style="mask-type:alpha" maskUnits="userSpaceOnUse" x="0" y="0" width="191" height="44">
<rect width="191" height="44" rx="11" fill="#4285F4"/>
</mask>
<g mask="url(#mask0_1443_5562)">
<rect width="191" height="44" rx="11" fill="#202340"/>
<path d="M131 15.5C62.6 39.5 21.8333 7.5 10 -11.5L-4.5 -4.5L-10 23.5C-4.16667 35.5 8 59.8 10 61C12 62.2 51.1667 62.8333 70.5 63L215 65.5L235.5 46.5C229.167 26.1667 199.4 -8.5 131 15.5Z" fill="#292D51"/>
<path d="M48.5248 34C48.4071 34 48.3108 33.9626 48.2359 33.8877C48.1609 33.8021 48.1235 33.7058 48.1235 33.5988V23.1663C48.1235 23.0485 48.1609 22.9522 48.2359 22.8774C48.3108 22.8024 48.4071 22.765 48.5248 22.765H52.6978C53.7463 22.765 54.6398 22.9362 55.3781 23.2786C56.1164 23.6103 56.6835 24.1025 57.0794 24.7552C57.4753 25.3972 57.6893 26.1943 57.7214 27.1467C57.7321 27.6175 57.7374 28.0294 57.7374 28.3825C57.7374 28.7356 57.7321 29.1422 57.7214 29.6023C57.6786 30.5974 57.4646 31.4213 57.0794 32.074C56.7049 32.7267 56.1539 33.2135 55.4263 33.5346C54.7094 33.8449 53.8266 34 52.778 34H48.5248ZM51.0125 31.6888H52.6978C53.1579 31.6888 53.5377 31.6192 53.8373 31.4802C54.1476 31.3304 54.3776 31.1003 54.5274 30.79C54.6879 30.4797 54.7735 30.0731 54.7842 29.5702C54.8056 29.2599 54.8163 28.9817 54.8163 28.7356C54.8271 28.4895 54.8271 28.2434 54.8163 27.9973C54.8163 27.7512 54.8056 27.4784 54.7842 27.1788C54.7628 26.4511 54.5702 25.9215 54.2065 25.5898C53.8533 25.2474 53.3237 25.0762 52.6175 25.0762H51.0125V31.6888ZM59.8371 34C59.7194 34 59.6231 33.9626 59.5482 33.8877C59.4733 33.8021 59.4359 33.7058 59.4359 33.5988V26.0552C59.4359 25.9375 59.4733 25.8412 59.5482 25.7664C59.6231 25.6914 59.7194 25.654 59.8371 25.654H61.731C61.8487 25.654 61.945 25.6914 62.0199 25.7664C62.0948 25.8412 62.1323 25.9375 62.1323 26.0552V33.5988C62.1323 33.7058 62.0948 33.8021 62.0199 33.8877C61.945 33.9626 61.8487 34 61.731 34H59.8371ZM59.8211 24.4502C59.7034 24.4502 59.6071 24.4128 59.5322 24.3379C59.4573 24.263 59.4198 24.1667 59.4198 24.049V22.6045C59.4198 22.4975 59.4573 22.4065 59.5322 22.3316C59.6071 22.2461 59.7034 22.2033 59.8211 22.2033H61.7471C61.8541 22.2033 61.945 22.2461 62.0199 22.3316C62.1055 22.4065 62.1483 22.4975 62.1483 22.6045V24.049C62.1483 24.1667 62.1055 24.263 62.0199 24.3379C61.945 24.4128 61.8541 24.4502 61.7471 24.4502H59.8211ZM64.9311 34C64.8134 34 64.7171 33.9626 64.6422 33.8877C64.5673 33.8021 64.5299 33.7058 64.5299 33.5988V26.0552C64.5299 25.9483 64.5673 25.8573 64.6422 25.7824C64.7171 25.6968 64.8134 25.654 64.9311 25.654H66.7769C66.8946 25.654 66.9909 25.6968 67.0658 25.7824C67.1514 25.8573 67.1942 25.9483 67.1942 26.0552V26.6973C67.4724 26.3655 67.8094 26.1087 68.2053 25.9269C68.6119 25.7449 69.0667 25.654 69.5696 25.654H70.2758C70.3935 25.654 70.4898 25.6914 70.5647 25.7664C70.6396 25.8412 70.677 25.9375 70.677 26.0552V27.7084C70.677 27.8154 70.6396 27.9117 70.5647 27.9973C70.4898 28.0722 70.3935 28.1097 70.2758 28.1097H68.7189C68.2802 28.1097 67.9378 28.2327 67.6917 28.4788C67.4563 28.7142 67.3386 29.0512 67.3386 29.4899V33.5988C67.3386 33.7058 67.2958 33.8021 67.2102 33.8877C67.1353 33.9626 67.039 34 66.9213 34H64.9311ZM75.6075 34.1605C74.3449 34.1605 73.3391 33.8181 72.5901 33.1333C71.8411 32.4485 71.4505 31.432 71.4184 30.0838C71.4184 30.0089 71.4184 29.9126 71.4184 29.7949C71.4184 29.6772 71.4184 29.5863 71.4184 29.522C71.4505 28.6768 71.6378 27.9545 71.9802 27.3553C72.3333 26.7454 72.8148 26.2853 73.4247 25.975C74.0453 25.654 74.7675 25.4935 75.5914 25.4935C76.533 25.4935 77.3088 25.6807 77.9187 26.0552C78.5393 26.4298 79.0047 26.938 79.315 27.58C79.6253 28.222 79.7805 28.955 79.7805 29.7789V30.1641C79.7805 30.2817 79.743 30.378 79.6681 30.4529C79.5932 30.5278 79.4969 30.5653 79.3792 30.5653H74.2432C74.2432 30.576 74.2432 30.592 74.2432 30.6134C74.2432 30.6349 74.2432 30.6562 74.2432 30.6776C74.2539 30.988 74.3074 31.2715 74.4037 31.5283C74.5107 31.7851 74.6605 31.9884 74.8531 32.1382C75.0564 32.288 75.3025 32.3629 75.5914 32.3629C75.8054 32.3629 75.982 32.3308 76.1211 32.2666C76.2709 32.1917 76.3939 32.1115 76.4902 32.0259C76.5865 31.9296 76.6614 31.8493 76.7149 31.7851C76.8112 31.6674 76.8861 31.5979 76.9396 31.5764C77.0038 31.5443 77.1001 31.5283 77.2285 31.5283H79.2187C79.3257 31.5283 79.4113 31.5604 79.4755 31.6246C79.5504 31.6888 79.5825 31.7744 79.5718 31.8814C79.5611 32.0633 79.4702 32.2827 79.299 32.5394C79.1278 32.7963 78.8763 33.0531 78.5446 33.3099C78.2236 33.5559 77.817 33.7592 77.3248 33.9197C76.8326 34.0803 76.2602 34.1605 75.6075 34.1605ZM74.2432 28.9763H76.9557V28.9442C76.9557 28.5911 76.9022 28.2915 76.7952 28.0454C76.6989 27.7887 76.5437 27.5907 76.3297 27.4516C76.1264 27.3125 75.8803 27.2429 75.5914 27.2429C75.3132 27.2429 75.0725 27.3125 74.8692 27.4516C74.6659 27.5907 74.5107 27.7887 74.4037 28.0454C74.2967 28.2915 74.2432 28.5911 74.2432 28.9442V28.9763ZM85.1211 34.1605C84.3293 34.1605 83.6285 34.0161 83.0186 33.7271C82.4087 33.4382 81.9218 33.0209 81.558 32.4752C81.2049 31.9189 81.0123 31.2555 80.9802 30.485C80.9695 30.3138 80.9642 30.0999 80.9642 29.8431C80.9642 29.5756 80.9695 29.3562 80.9802 29.185C81.0123 28.4039 81.2049 27.7405 81.558 27.1948C81.9111 26.6384 82.3926 26.2158 83.0025 25.9269C83.6231 25.6379 84.3293 25.4935 85.1211 25.4935C85.8594 25.4935 86.4907 25.6005 87.015 25.8145C87.55 26.0178 87.978 26.2746 88.299 26.5849C88.6307 26.8952 88.8768 27.2162 89.0373 27.5479C89.2085 27.8689 89.2995 28.1525 89.3102 28.3986C89.3209 28.5056 89.2834 28.6018 89.1978 28.6874C89.1122 28.7624 89.0159 28.7998 88.9089 28.7998H86.8706C86.7529 28.7998 86.6619 28.7731 86.5977 28.7195C86.5335 28.666 86.4747 28.5858 86.4212 28.4788C86.2928 28.1471 86.1269 27.9117 85.9236 27.7726C85.731 27.6335 85.4796 27.5639 85.1693 27.5639C84.7413 27.5639 84.4096 27.703 84.1742 27.9812C83.9495 28.2595 83.8264 28.6875 83.805 29.2652C83.7943 29.6932 83.7943 30.0731 83.805 30.4048C83.8371 30.9933 83.9655 31.4213 84.1902 31.6888C84.4149 31.9563 84.7413 32.0901 85.1693 32.0901C85.501 32.0901 85.7631 32.0205 85.9557 31.8814C86.1483 31.7316 86.3035 31.4962 86.4212 31.1752C86.4747 31.0682 86.5335 30.988 86.5977 30.9344C86.6619 30.8809 86.7529 30.8542 86.8706 30.8542H88.9089C89.0159 30.8542 89.1122 30.8916 89.1978 30.9665C89.2834 31.0414 89.3209 31.1377 89.3102 31.2555C89.2995 31.4267 89.246 31.6353 89.1497 31.8814C89.0534 32.1275 88.9036 32.3843 88.7003 32.6518C88.497 32.9193 88.2295 33.1654 87.8978 33.3901C87.5768 33.6148 87.1862 33.802 86.7261 33.9519C86.266 34.091 85.731 34.1605 85.1211 34.1605ZM95.0215 34C94.3367 34 93.7428 33.893 93.2399 33.679C92.7477 33.4543 92.3679 33.1119 92.1004 32.6518C91.8329 32.181 91.6991 31.5764 91.6991 30.8381V27.7565H90.4472C90.3295 27.7565 90.2279 27.7191 90.1423 27.6442C90.0674 27.5693 90.0299 27.473 90.0299 27.3553V26.0552C90.0299 25.9375 90.0674 25.8412 90.1423 25.7664C90.2279 25.6914 90.3295 25.654 90.4472 25.654H91.6991V23.0057C91.6991 22.888 91.7366 22.7918 91.8115 22.7169C91.8971 22.642 91.9934 22.6045 92.1004 22.6045H93.9622C94.0799 22.6045 94.1762 22.642 94.2511 22.7169C94.326 22.7918 94.3634 22.888 94.3634 23.0057V25.654H96.3697C96.4874 25.654 96.5837 25.6914 96.6586 25.7664C96.7442 25.8412 96.787 25.9375 96.787 26.0552V27.3553C96.787 27.473 96.7442 27.5693 96.6586 27.6442C96.5837 27.7191 96.4874 27.7565 96.3697 27.7565H94.3634V30.6134C94.3634 30.9773 94.433 31.2662 94.5721 31.4802C94.7112 31.6941 94.9466 31.8011 95.2783 31.8011H96.5141C96.6318 31.8011 96.7281 31.8386 96.803 31.9135C96.8779 31.9884 96.9154 32.0847 96.9154 32.2024V33.5988C96.9154 33.7058 96.8779 33.8021 96.803 33.8877C96.7281 33.9626 96.6318 34 96.5141 34H95.0215ZM102.239 34C102.121 34 102.025 33.9626 101.95 33.8877C101.875 33.8021 101.838 33.7058 101.838 33.5988V23.1663C101.838 23.0485 101.875 22.9522 101.95 22.8774C102.025 22.8024 102.121 22.765 102.239 22.765H106.412C107.461 22.765 108.354 22.9362 109.092 23.2786C109.831 23.6103 110.398 24.1025 110.794 24.7552C111.19 25.3972 111.404 26.1943 111.436 27.1467C111.446 27.6175 111.452 28.0294 111.452 28.3825C111.452 28.7356 111.446 29.1422 111.436 29.6023C111.393 30.5974 111.179 31.4213 110.794 32.074C110.419 32.7267 109.868 33.2135 109.14 33.5346C108.424 33.8449 107.541 34 106.492 34H102.239ZM104.727 31.6888H106.412C106.872 31.6888 107.252 31.6192 107.552 31.4802C107.862 31.3304 108.092 31.1003 108.242 30.79C108.402 30.4797 108.488 30.0731 108.498 29.5702C108.52 29.2599 108.531 28.9817 108.531 28.7356C108.541 28.4895 108.541 28.2434 108.531 27.9973C108.531 27.7512 108.52 27.4784 108.498 27.1788C108.477 26.4511 108.284 25.9215 107.921 25.5898C107.568 25.2474 107.038 25.0762 106.332 25.0762H104.727V31.6888ZM117.098 34.1605C116.2 34.1605 115.44 34.0161 114.819 33.7271C114.209 33.4382 113.739 33.0263 113.407 32.4913C113.086 31.9456 112.904 31.2982 112.861 30.5493C112.85 30.3353 112.845 30.0945 112.845 29.827C112.845 29.5488 112.85 29.3081 112.861 29.1048C112.904 28.3451 113.097 27.6977 113.439 27.1627C113.781 26.6277 114.258 26.2158 114.867 25.9269C115.488 25.6379 116.232 25.4935 117.098 25.4935C117.976 25.4935 118.719 25.6379 119.329 25.9269C119.95 26.2158 120.431 26.6277 120.774 27.1627C121.116 27.6977 121.309 28.3451 121.352 29.1048C121.362 29.3081 121.368 29.5488 121.368 29.827C121.368 30.0945 121.362 30.3353 121.352 30.5493C121.309 31.2982 121.122 31.9456 120.79 32.4913C120.469 33.0263 119.998 33.4382 119.377 33.7271C118.768 34.0161 118.008 34.1605 117.098 34.1605ZM117.098 32.2024C117.58 32.2024 117.928 32.0579 118.142 31.769C118.366 31.4801 118.495 31.0468 118.527 30.469C118.538 30.3085 118.543 30.0945 118.543 29.827C118.543 29.5595 118.538 29.3455 118.527 29.185C118.495 28.6179 118.366 28.1899 118.142 27.901C117.928 27.6014 117.58 27.4516 117.098 27.4516C116.638 27.4516 116.291 27.6014 116.055 27.901C115.83 28.1899 115.707 28.6179 115.686 29.185C115.675 29.3455 115.67 29.5595 115.67 29.827C115.67 30.0945 115.675 30.3085 115.686 30.469C115.707 31.0468 115.83 31.4801 116.055 31.769C116.291 32.0579 116.638 32.2024 117.098 32.2024ZM125.054 34C124.894 34 124.776 33.9626 124.701 33.8877C124.626 33.8021 124.567 33.7058 124.524 33.5988L122.213 26.1676C122.192 26.1141 122.181 26.0606 122.181 26.0071C122.181 25.9108 122.219 25.8306 122.293 25.7664C122.368 25.6914 122.454 25.654 122.55 25.654H124.203C124.342 25.654 124.449 25.6914 124.524 25.7664C124.61 25.8412 124.663 25.9161 124.685 25.9911L126.033 30.5813L127.478 26.0071C127.499 25.9322 127.547 25.8573 127.622 25.7824C127.708 25.6968 127.825 25.654 127.975 25.654H129.034C129.184 25.654 129.302 25.6968 129.388 25.7824C129.473 25.8573 129.521 25.9322 129.532 26.0071L130.976 30.5813L132.325 25.9911C132.346 25.9161 132.394 25.8412 132.469 25.7664C132.555 25.6914 132.667 25.654 132.806 25.654H134.459C134.556 25.654 134.641 25.6914 134.716 25.7664C134.791 25.8306 134.828 25.9108 134.828 26.0071C134.828 26.0606 134.818 26.1141 134.796 26.1676L132.485 33.5988C132.453 33.7058 132.394 33.8021 132.309 33.8877C132.234 33.9626 132.116 34 131.956 34H130.511C130.361 34 130.244 33.9626 130.158 33.8877C130.072 33.8021 130.013 33.7058 129.981 33.5988L128.505 29.201L127.028 33.5988C126.996 33.7058 126.937 33.8021 126.852 33.8877C126.766 33.9626 126.648 34 126.499 34H125.054ZM136.576 34C136.458 34 136.362 33.9626 136.287 33.8877C136.212 33.8021 136.175 33.7058 136.175 33.5988V26.0552C136.175 25.9375 136.212 25.8412 136.287 25.7664C136.362 25.6914 136.458 25.654 136.576 25.654H138.422C138.54 25.654 138.636 25.6914 138.711 25.7664C138.796 25.8412 138.839 25.9375 138.839 26.0552V26.6652C139.107 26.3334 139.465 26.0552 139.915 25.8306C140.364 25.6059 140.894 25.4935 141.504 25.4935C142.124 25.4935 142.67 25.6326 143.141 25.9108C143.622 26.189 143.997 26.5956 144.264 27.1306C144.542 27.6656 144.681 28.329 144.681 29.1208V33.5988C144.681 33.7058 144.644 33.8021 144.569 33.8877C144.494 33.9626 144.398 34 144.28 34H142.258C142.151 34 142.055 33.9626 141.969 33.8877C141.894 33.8021 141.857 33.7058 141.857 33.5988V29.2171C141.857 28.7142 141.734 28.329 141.487 28.0615C141.252 27.7833 140.899 27.6442 140.428 27.6442C139.989 27.6442 139.636 27.7833 139.369 28.0615C139.112 28.329 138.984 28.7142 138.984 29.2171V33.5988C138.984 33.7058 138.941 33.8021 138.855 33.8877C138.78 33.9626 138.689 34 138.582 34H136.576ZM146.89 34C146.772 34 146.676 33.9626 146.601 33.8877C146.526 33.8021 146.488 33.7058 146.488 33.5988V23.0057C146.488 22.888 146.526 22.7918 146.601 22.7169C146.676 22.642 146.772 22.6045 146.89 22.6045H148.783C148.901 22.6045 148.997 22.642 149.072 22.7169C149.147 22.7918 149.185 22.888 149.185 23.0057V33.5988C149.185 33.7058 149.147 33.8021 149.072 33.8877C148.997 33.9626 148.901 34 148.783 34H146.89ZM155.029 34.1605C154.13 34.1605 153.371 34.0161 152.75 33.7271C152.14 33.4382 151.669 33.0263 151.338 32.4913C151.017 31.9456 150.835 31.2982 150.792 30.5493C150.781 30.3353 150.776 30.0945 150.776 29.827C150.776 29.5488 150.781 29.3081 150.792 29.1048C150.835 28.3451 151.027 27.6977 151.37 27.1627C151.712 26.6277 152.188 26.2158 152.798 25.9269C153.419 25.6379 154.162 25.4935 155.029 25.4935C155.906 25.4935 156.65 25.6379 157.26 25.9269C157.881 26.2158 158.362 26.6277 158.704 27.1627C159.047 27.6977 159.239 28.3451 159.282 29.1048C159.293 29.3081 159.298 29.5488 159.298 29.827C159.298 30.0945 159.293 30.3353 159.282 30.5493C159.239 31.2982 159.052 31.9456 158.721 32.4913C158.4 33.0263 157.929 33.4382 157.308 33.7271C156.698 34.0161 155.939 34.1605 155.029 34.1605ZM155.029 32.2024C155.511 32.2024 155.858 32.0579 156.072 31.769C156.297 31.4801 156.425 31.0468 156.457 30.469C156.468 30.3085 156.474 30.0945 156.474 29.827C156.474 29.5595 156.468 29.3455 156.457 29.185C156.425 28.6179 156.297 28.1899 156.072 27.901C155.858 27.6014 155.511 27.4516 155.029 27.4516C154.569 27.4516 154.221 27.6014 153.986 27.901C153.761 28.1899 153.638 28.6179 153.617 29.185C153.606 29.3455 153.601 29.5595 153.601 29.827C153.601 30.0945 153.606 30.3085 153.617 30.469C153.638 31.0468 153.761 31.4801 153.986 31.769C154.221 32.0579 154.569 32.2024 155.029 32.2024ZM163.396 34.1605C162.819 34.1605 162.3 34.0535 161.84 33.8395C161.39 33.6148 161.032 33.3152 160.764 32.9407C160.497 32.5662 160.363 32.1435 160.363 31.6727C160.363 30.9131 160.673 30.3139 161.294 29.8752C161.914 29.4257 162.738 29.1208 163.766 28.9603L165.772 28.6554V28.4307C165.772 28.0455 165.692 27.7512 165.531 27.5479C165.371 27.3446 165.076 27.2429 164.648 27.2429C164.349 27.2429 164.103 27.3018 163.91 27.4195C163.728 27.5372 163.584 27.6977 163.477 27.901C163.38 28.0401 163.247 28.1097 163.075 28.1097H161.278C161.16 28.1097 161.069 28.0775 161.005 28.0133C160.941 27.9384 160.914 27.8528 160.925 27.7565C160.925 27.564 160.994 27.3446 161.133 27.0985C161.283 26.8417 161.508 26.5902 161.807 26.3441C162.107 26.0981 162.492 25.8948 162.963 25.7342C163.434 25.5737 164.006 25.4935 164.68 25.4935C165.365 25.4935 165.954 25.5737 166.446 25.7342C166.938 25.8948 167.339 26.1195 167.65 26.4084C167.96 26.6973 168.185 27.0397 168.324 27.4356C168.474 27.8207 168.548 28.2487 168.548 28.7195V33.5988C168.548 33.7058 168.506 33.8021 168.42 33.8877C168.345 33.9626 168.254 34 168.147 34H166.285C166.168 34 166.071 33.9626 165.996 33.8877C165.922 33.8021 165.884 33.7058 165.884 33.5988V33.037C165.745 33.2403 165.558 33.4276 165.322 33.5988C165.087 33.77 164.809 33.9037 164.488 34C164.177 34.107 163.814 34.1605 163.396 34.1605ZM164.151 32.3308C164.461 32.3308 164.739 32.2666 164.985 32.1382C165.242 31.9991 165.44 31.7905 165.579 31.5123C165.729 31.2234 165.804 30.8649 165.804 30.4369V30.2122L164.44 30.4529C163.937 30.5385 163.568 30.6723 163.332 30.8542C163.107 31.0254 162.995 31.2287 162.995 31.4641C162.995 31.646 163.049 31.8012 163.156 31.9295C163.263 32.0579 163.402 32.1596 163.573 32.2345C163.755 32.2987 163.947 32.3308 164.151 32.3308ZM173.473 34.1605C172.96 34.1605 172.494 34.0803 172.077 33.9197C171.67 33.7485 171.317 33.5024 171.018 33.1814C170.729 32.8498 170.504 32.4539 170.343 31.9938C170.183 31.5229 170.092 30.9879 170.071 30.3888C170.06 30.1748 170.055 29.9875 170.055 29.827C170.055 29.6558 170.06 29.4632 170.071 29.2492C170.092 28.6821 170.183 28.1685 170.343 27.7084C170.504 27.2376 170.729 26.8417 171.018 26.5207C171.306 26.189 171.66 25.9376 172.077 25.7664C172.494 25.5845 172.96 25.4935 173.473 25.4935C174.008 25.4935 174.468 25.5845 174.854 25.7664C175.239 25.9376 175.565 26.1623 175.833 26.4405V23.0057C175.833 22.888 175.87 22.7918 175.945 22.7169C176.02 22.642 176.116 22.6045 176.234 22.6045H178.192C178.299 22.6045 178.39 22.642 178.465 22.7169C178.55 22.7918 178.593 22.888 178.593 23.0057V33.5988C178.593 33.7058 178.55 33.8021 178.465 33.8877C178.39 33.9626 178.299 34 178.192 34H176.378C176.261 34 176.164 33.9626 176.089 33.8877C176.014 33.8021 175.977 33.7058 175.977 33.5988V33.0851C175.72 33.3954 175.389 33.6523 174.982 33.8555C174.575 34.0589 174.072 34.1605 173.473 34.1605ZM174.356 32.0098C174.709 32.0098 174.987 31.9349 175.191 31.7851C175.405 31.6246 175.56 31.4213 175.656 31.1752C175.763 30.9291 175.822 30.6616 175.833 30.3727C175.843 30.1587 175.849 29.9554 175.849 29.7628C175.849 29.5702 175.843 29.3723 175.833 29.1689C175.822 28.9015 175.763 28.6554 175.656 28.4307C175.549 28.1953 175.389 28.008 175.175 27.8689C174.961 27.7191 174.688 27.6442 174.356 27.6442C174.003 27.6442 173.719 27.7191 173.505 27.8689C173.302 28.0187 173.152 28.222 173.056 28.4788C172.97 28.7356 172.917 29.0191 172.895 29.3295C172.863 29.6611 172.863 29.9928 172.895 30.3245C172.917 30.6349 172.97 30.9184 173.056 31.1752C173.152 31.432 173.302 31.6353 173.505 31.7851C173.719 31.9349 174.003 32.0098 174.356 32.0098Z" fill="white"/>
<path d="M47.9955 16C47.9291 16 47.8779 15.9819 47.8417 15.9457C47.8055 15.9035 47.7874 15.8522 47.7874 15.7918V9.8822C47.7874 9.81583 47.8055 9.76455 47.8417 9.72835C47.8779 9.68612 47.9291 9.665 47.9955 9.665H50.0499C50.6713 9.665 51.1721 9.75852 51.5522 9.94555C51.9323 10.1326 52.2098 10.4101 52.3848 10.7781C52.5597 11.1401 52.6502 11.5866 52.6563 12.1175C52.6623 12.389 52.6653 12.6274 52.6653 12.8325C52.6653 13.0376 52.6623 13.2729 52.6563 13.5384C52.6442 14.0935 52.5507 14.555 52.3757 14.923C52.2068 15.285 51.9353 15.5565 51.5612 15.7375C51.1932 15.9125 50.7045 16 50.0951 16H47.9955ZM48.6743 15.2307H50.0499C50.4662 15.2307 50.798 15.1734 51.0454 15.0588C51.2927 14.9442 51.4707 14.7601 51.5793 14.5067C51.6939 14.2533 51.7543 13.9185 51.7603 13.5022C51.7724 13.3212 51.7784 13.1643 51.7784 13.0316C51.7784 12.8928 51.7784 12.7571 51.7784 12.6243C51.7784 12.4856 51.7724 12.3287 51.7603 12.1537C51.7482 11.5685 51.6095 11.1371 51.344 10.8596C51.0785 10.576 50.6321 10.4342 50.0046 10.4342H48.6743V15.2307ZM55.8369 16.0905C55.3784 16.0905 54.9953 16.003 54.6876 15.828C54.3799 15.6531 54.1446 15.4117 53.9817 15.104C53.8188 14.7903 53.7283 14.4343 53.7102 14.0361C53.7041 13.9336 53.7011 13.8039 53.7011 13.647C53.7011 13.4841 53.7041 13.3544 53.7102 13.2578C53.7283 12.8536 53.8188 12.4976 53.9817 12.1899C54.1506 11.8822 54.3889 11.6409 54.6966 11.4659C55.0043 11.291 55.3844 11.2035 55.8369 11.2035C56.2894 11.2035 56.6695 11.291 56.9772 11.4659C57.2849 11.6409 57.5202 11.8822 57.6831 12.1899C57.852 12.4976 57.9456 12.8536 57.9637 13.2578C57.9697 13.3544 57.9727 13.4841 57.9727 13.647C57.9727 13.8039 57.9697 13.9336 57.9637 14.0361C57.9456 14.4343 57.8551 14.7903 57.6922 15.104C57.5293 15.4117 57.294 15.6531 56.9863 15.828C56.6786 16.003 56.2954 16.0905 55.8369 16.0905ZM55.8369 15.3936C56.211 15.3936 56.5096 15.276 56.7329 15.0407C56.9561 14.7994 57.0768 14.4494 57.0949 13.9909C57.1009 13.9004 57.1039 13.7858 57.1039 13.647C57.1039 13.5082 57.1009 13.3936 57.0949 13.3031C57.0768 12.8446 56.9561 12.4976 56.7329 12.2623C56.5096 12.021 56.211 11.9003 55.8369 11.9003C55.4628 11.9003 55.1612 12.021 54.9319 12.2623C54.7087 12.4976 54.591 12.8446 54.579 13.3031C54.5729 13.3936 54.5699 13.5082 54.5699 13.647C54.5699 13.7858 54.5729 13.9004 54.579 13.9909C54.591 14.4494 54.7087 14.7994 54.9319 15.0407C55.1612 15.276 55.4628 15.3936 55.8369 15.3936ZM60.2311 16C60.1527 16 60.0923 15.9819 60.0501 15.9457C60.0079 15.9035 59.9717 15.8461 59.9415 15.7737L58.6564 11.5745C58.6443 11.5444 58.6383 11.5142 58.6383 11.484C58.6383 11.4297 58.6564 11.3845 58.6926 11.3483C58.7348 11.3121 58.7801 11.294 58.8284 11.294H59.2266C59.2929 11.294 59.3442 11.3121 59.3804 11.3483C59.4166 11.3845 59.4407 11.4177 59.4528 11.4478L60.4574 14.8597L61.5343 11.484C61.5464 11.4418 61.5705 11.3996 61.6067 11.3573C61.6489 11.3151 61.7093 11.294 61.7877 11.294H62.0954C62.1738 11.294 62.2342 11.3151 62.2764 11.3573C62.3186 11.3996 62.3428 11.4418 62.3488 11.484L63.4258 14.8597L64.4303 11.4478C64.4363 11.4177 64.4575 11.3845 64.4937 11.3483C64.5299 11.3121 64.5811 11.294 64.6475 11.294H65.0548C65.103 11.294 65.1453 11.3121 65.1815 11.3483C65.2177 11.3845 65.2358 11.4297 65.2358 11.484C65.2358 11.5142 65.2297 11.5444 65.2177 11.5745L63.9416 15.7737C63.9175 15.8461 63.8843 15.9035 63.8421 15.9457C63.7998 15.9819 63.7335 16 63.643 16H63.29C63.2116 16 63.1452 15.9819 63.0909 15.9457C63.0426 15.9035 63.0095 15.8461 62.9914 15.7737L61.9416 12.5338L60.8918 15.7737C60.8676 15.8461 60.8314 15.9035 60.7832 15.9457C60.7349 15.9819 60.6685 16 60.5841 16H60.2311ZM66.4463 16C66.3859 16 66.3346 15.9819 66.2924 15.9457C66.2562 15.9035 66.2381 15.8522 66.2381 15.7918V11.5021C66.2381 11.4418 66.2562 11.3935 66.2924 11.3573C66.3346 11.3151 66.3859 11.294 66.4463 11.294H66.8716C66.9319 11.294 66.9802 11.3151 67.0164 11.3573C67.0586 11.3935 67.0798 11.4418 67.0798 11.5021V11.9003C67.2366 11.6952 67.4327 11.5293 67.668 11.4026C67.9093 11.2699 68.217 11.2035 68.5911 11.2035C68.9833 11.2035 69.3151 11.291 69.5866 11.4659C69.8641 11.6349 70.0723 11.8732 70.2111 12.1809C70.3559 12.4826 70.4283 12.8355 70.4283 13.2397V15.7918C70.4283 15.8522 70.4071 15.9035 70.3649 15.9457C70.3287 15.9819 70.2804 16 70.2201 16H69.7676C69.7073 16 69.656 15.9819 69.6138 15.9457C69.5776 15.9035 69.5595 15.8522 69.5595 15.7918V13.285C69.5595 12.8627 69.4569 12.5338 69.2518 12.2985C69.0466 12.0572 68.745 11.9365 68.3468 11.9365C67.9727 11.9365 67.671 12.0572 67.4418 12.2985C67.2185 12.5338 67.1069 12.8627 67.1069 13.285V15.7918C67.1069 15.8522 67.0858 15.9035 67.0436 15.9457C67.0074 15.9819 66.9591 16 66.8988 16H66.4463ZM71.9436 16C71.8833 16 71.832 15.9819 71.7898 15.9457C71.7536 15.9035 71.7355 15.8522 71.7355 15.7918V9.78265C71.7355 9.72232 71.7536 9.67405 71.7898 9.63785C71.832 9.59562 71.8833 9.5745 71.9436 9.5745H72.369C72.4354 9.5745 72.4866 9.59562 72.5228 9.63785C72.559 9.67405 72.5771 9.72232 72.5771 9.78265V15.7918C72.5771 15.8522 72.559 15.9035 72.5228 15.9457C72.4866 15.9819 72.4354 16 72.369 16H71.9436ZM75.8547 16.0905C75.3962 16.0905 75.0131 16.003 74.7054 15.828C74.3977 15.6531 74.1624 15.4117 73.9995 15.104C73.8366 14.7903 73.7461 14.4343 73.728 14.0361C73.7219 13.9336 73.7189 13.8039 73.7189 13.647C73.7189 13.4841 73.7219 13.3544 73.728 13.2578C73.7461 12.8536 73.8366 12.4976 73.9995 12.1899C74.1684 11.8822 74.4067 11.6409 74.7144 11.4659C75.0221 11.291 75.4022 11.2035 75.8547 11.2035C76.3072 11.2035 76.6873 11.291 76.995 11.4659C77.3027 11.6409 77.538 11.8822 77.7009 12.1899C77.8699 12.4976 77.9634 12.8536 77.9815 13.2578C77.9875 13.3544 77.9905 13.4841 77.9905 13.647C77.9905 13.8039 77.9875 13.9336 77.9815 14.0361C77.9634 14.4343 77.8729 14.7903 77.71 15.104C77.5471 15.4117 77.3118 15.6531 77.0041 15.828C76.6964 16.003 76.3133 16.0905 75.8547 16.0905ZM75.8547 15.3936C76.2288 15.3936 76.5274 15.276 76.7507 15.0407C76.9739 14.7994 77.0946 14.4494 77.1127 13.9909C77.1187 13.9004 77.1217 13.7858 77.1217 13.647C77.1217 13.5082 77.1187 13.3936 77.1127 13.3031C77.0946 12.8446 76.9739 12.4976 76.7507 12.2623C76.5274 12.021 76.2288 11.9003 75.8547 11.9003C75.4807 11.9003 75.179 12.021 74.9497 12.2623C74.7265 12.4976 74.6088 12.8446 74.5968 13.3031C74.5907 13.3936 74.5877 13.5082 74.5877 13.647C74.5877 13.7858 74.5907 13.9004 74.5968 13.9909C74.6088 14.4494 74.7265 14.7994 74.9497 15.0407C75.179 15.276 75.4807 15.3936 75.8547 15.3936ZM80.436 16.0905C80.1343 16.0905 79.8598 16.0302 79.6125 15.9095C79.3651 15.7888 79.166 15.6259 79.0152 15.4208C78.8643 15.2157 78.7889 14.9834 78.7889 14.7239C78.7889 14.3076 78.9578 13.9758 79.2957 13.7284C79.6336 13.4811 80.074 13.3182 80.617 13.2397L81.9655 13.0497V12.7872C81.9655 12.4976 81.881 12.2714 81.7121 12.1085C81.5492 11.9456 81.2807 11.8641 80.9066 11.8641C80.6411 11.8641 80.4239 11.9184 80.255 12.027C80.0861 12.1356 79.9684 12.2744 79.9021 12.4433C79.8659 12.5338 79.8025 12.5791 79.712 12.5791H79.3048C79.2384 12.5791 79.1871 12.561 79.1509 12.5248C79.1207 12.4826 79.1057 12.4343 79.1057 12.38C79.1057 12.2895 79.1388 12.1779 79.2052 12.0451C79.2776 11.9124 79.3862 11.7827 79.531 11.656C79.6758 11.5293 79.8598 11.4237 80.0831 11.3392C80.3123 11.2487 80.5899 11.2035 80.9157 11.2035C81.2777 11.2035 81.5823 11.2518 81.8297 11.3483C82.0771 11.4388 82.2701 11.5625 82.4089 11.7193C82.5537 11.8762 82.6563 12.0542 82.7166 12.2533C82.783 12.4524 82.8162 12.6545 82.8162 12.8596V15.7918C82.8162 15.8522 82.795 15.9035 82.7528 15.9457C82.7166 15.9819 82.6683 16 82.608 16H82.1917C82.1253 16 82.0741 15.9819 82.0379 15.9457C82.0017 15.9035 81.9836 15.8522 81.9836 15.7918V15.4027C81.9051 15.5113 81.7995 15.6199 81.6668 15.7285C81.5341 15.8311 81.3682 15.9185 81.1691 15.9909C80.97 16.0573 80.7256 16.0905 80.436 16.0905ZM80.6261 15.4117C80.8734 15.4117 81.0997 15.3605 81.3048 15.2579C81.5099 15.1493 81.6698 14.9834 81.7845 14.7601C81.9051 14.5369 81.9655 14.2564 81.9655 13.9185V13.6651L80.9157 13.8189C80.4873 13.8793 80.1645 13.9818 79.9473 14.1266C79.7301 14.2654 79.6215 14.4434 79.6215 14.6606C79.6215 14.8295 79.6698 14.9713 79.7663 15.0859C79.8689 15.1945 79.9956 15.276 80.1464 15.3303C80.3033 15.3846 80.4632 15.4117 80.6261 15.4117ZM85.8367 16.0905C85.5048 16.0905 85.2182 16.0332 84.9769 15.9185C84.7356 15.7979 84.5365 15.638 84.3796 15.4389C84.2288 15.2338 84.1141 15.0015 84.0357 14.742C83.9633 14.4826 83.9211 14.2081 83.909 13.9185C83.903 13.822 83.9 13.7315 83.9 13.647C83.9 13.5625 83.903 13.472 83.909 13.3755C83.9211 13.0919 83.9633 12.8204 84.0357 12.561C84.1141 12.3016 84.2288 12.0693 84.3796 11.8641C84.5365 11.659 84.7356 11.4991 84.9769 11.3845C85.2182 11.2638 85.5048 11.2035 85.8367 11.2035C86.1926 11.2035 86.4883 11.2668 86.7236 11.3935C86.9589 11.5202 87.1519 11.6771 87.3028 11.8641V9.78265C87.3028 9.72232 87.3209 9.67405 87.3571 9.63785C87.3993 9.59562 87.4506 9.5745 87.5109 9.5745H87.9453C88.0056 9.5745 88.0539 9.59562 88.0901 9.63785C88.1323 9.67405 88.1535 9.72232 88.1535 9.78265V15.7918C88.1535 15.8522 88.1323 15.9035 88.0901 15.9457C88.0539 15.9819 88.0056 16 87.9453 16H87.5381C87.4717 16 87.4204 15.9819 87.3842 15.9457C87.348 15.9035 87.3299 15.8522 87.3299 15.7918V15.4117C87.1791 15.6048 86.983 15.7677 86.7417 15.9004C86.5003 16.0272 86.1987 16.0905 85.8367 16.0905ZM86.0267 15.3574C86.3284 15.3574 86.5697 15.2881 86.7507 15.1493C86.9317 15.0105 87.0675 14.8356 87.158 14.6244C87.2485 14.4072 87.2967 14.187 87.3028 13.9637C87.3088 13.8672 87.3118 13.7526 87.3118 13.6198C87.3118 13.4811 87.3088 13.3634 87.3028 13.2669C87.2967 13.0557 87.2454 12.8476 87.1489 12.6424C87.0584 12.4373 86.9196 12.2684 86.7326 12.1356C86.5516 12.0029 86.3163 11.9365 86.0267 11.9365C85.719 11.9365 85.4747 12.0059 85.2937 12.1447C85.1127 12.2774 84.9829 12.4554 84.9045 12.6786C84.8261 12.8958 84.7808 13.1311 84.7688 13.3845C84.7627 13.5595 84.7627 13.7345 84.7688 13.9094C84.7808 14.1628 84.8261 14.4012 84.9045 14.6244C84.9829 14.8416 85.1127 15.0196 85.2937 15.1583C85.4747 15.2911 85.719 15.3574 86.0267 15.3574ZM92.2286 16C92.1682 16 92.117 15.9819 92.0747 15.9457C92.0385 15.9035 92.0204 15.8522 92.0204 15.7918V12.018H91.2512C91.1908 12.018 91.1396 11.9999 91.0973 11.9637C91.0611 11.9215 91.043 11.8702 91.043 11.8098V11.5021C91.043 11.4418 91.0611 11.3935 91.0973 11.3573C91.1396 11.3151 91.1908 11.294 91.2512 11.294H92.0204V10.8415C92.0204 10.5338 92.0717 10.2653 92.1743 10.036C92.2768 9.80075 92.4397 9.61975 92.663 9.49305C92.8922 9.36635 93.1969 9.303 93.577 9.303H94.12C94.1804 9.303 94.2286 9.32412 94.2648 9.36635C94.3071 9.40255 94.3282 9.45082 94.3282 9.51115V9.81885C94.3282 9.87918 94.3071 9.93047 94.2648 9.9727C94.2286 10.0089 94.1804 10.027 94.12 10.027H93.5951C93.3116 10.027 93.1185 10.1024 93.0159 10.2532C92.9134 10.398 92.8621 10.6092 92.8621 10.8867V11.294H94.0295C94.0899 11.294 94.1381 11.3151 94.1743 11.3573C94.2166 11.3935 94.2377 11.4418 94.2377 11.5021V11.8098C94.2377 11.8702 94.2166 11.9215 94.1743 11.9637C94.1381 11.9999 94.0899 12.018 94.0295 12.018H92.8621V15.7918C92.8621 15.8522 92.841 15.9035 92.7987 15.9457C92.7625 15.9819 92.7143 16 92.6539 16H92.2286ZM95.2401 16C95.1798 16 95.1285 15.9819 95.0863 15.9457C95.0501 15.9035 95.032 15.8522 95.032 15.7918V11.5112C95.032 11.4509 95.0501 11.3996 95.0863 11.3573C95.1285 11.3151 95.1798 11.294 95.2401 11.294H95.6564C95.7167 11.294 95.768 11.3151 95.8103 11.3573C95.8525 11.3996 95.8736 11.4509 95.8736 11.5112V11.9094C95.9943 11.7043 96.1602 11.5504 96.3714 11.4478C96.5825 11.3453 96.8389 11.294 97.1406 11.294H97.4936C97.5539 11.294 97.6022 11.3151 97.6384 11.3573C97.6806 11.3935 97.7017 11.4418 97.7017 11.5021V11.8732C97.7017 11.9335 97.6806 11.9818 97.6384 12.018C97.6022 12.0542 97.5539 12.0723 97.4936 12.0723H96.9506C96.6248 12.0723 96.3683 12.1688 96.1813 12.3619C95.9943 12.5489 95.9008 12.8053 95.9008 13.1311V15.7918C95.9008 15.8522 95.8796 15.9035 95.8374 15.9457C95.7952 15.9819 95.7439 16 95.6836 16H95.2401ZM100.309 16.0905C99.8506 16.0905 99.4675 16.003 99.1598 15.828C98.8521 15.6531 98.6168 15.4117 98.4539 15.104C98.291 14.7903 98.2005 14.4343 98.1824 14.0361C98.1764 13.9336 98.1734 13.8039 98.1734 13.647C98.1734 13.4841 98.1764 13.3544 98.1824 13.2578C98.2005 12.8536 98.291 12.4976 98.4539 12.1899C98.6229 11.8822 98.8612 11.6409 99.1689 11.4659C99.4766 11.291 99.8567 11.2035 100.309 11.2035C100.762 11.2035 101.142 11.291 101.449 11.4659C101.757 11.6409 101.992 11.8822 102.155 12.1899C102.324 12.4976 102.418 12.8536 102.436 13.2578C102.442 13.3544 102.445 13.4841 102.445 13.647C102.445 13.8039 102.442 13.9336 102.436 14.0361C102.418 14.4343 102.327 14.7903 102.164 15.104C102.002 15.4117 101.766 15.6531 101.459 15.828C101.151 16.003 100.768 16.0905 100.309 16.0905ZM100.309 15.3936C100.683 15.3936 100.982 15.276 101.205 15.0407C101.428 14.7994 101.549 14.4494 101.567 13.9909C101.573 13.9004 101.576 13.7858 101.576 13.647C101.576 13.5082 101.573 13.3936 101.567 13.3031C101.549 12.8446 101.428 12.4976 101.205 12.2623C100.982 12.021 100.683 11.9003 100.309 11.9003C99.9351 11.9003 99.6334 12.021 99.4042 12.2623C99.1809 12.4976 99.0633 12.8446 99.0512 13.3031C99.0452 13.3936 99.0422 13.5082 99.0422 13.647C99.0422 13.7858 99.0452 13.9004 99.0512 13.9909C99.0633 14.4494 99.1809 14.7994 99.4042 15.0407C99.6334 15.276 99.9351 15.3936 100.309 15.3936ZM103.786 16C103.726 16 103.675 15.9819 103.632 15.9457C103.596 15.9035 103.578 15.8522 103.578 15.7918V11.5021C103.578 11.4418 103.596 11.3935 103.632 11.3573C103.675 11.3151 103.726 11.294 103.786 11.294H104.194C104.254 11.294 104.302 11.3151 104.338 11.3573C104.381 11.3935 104.402 11.4418 104.402 11.5021V11.8189C104.541 11.6319 104.715 11.484 104.927 11.3754C105.138 11.2608 105.391 11.2035 105.687 11.2035C106.369 11.1975 106.851 11.475 107.135 12.0361C107.274 11.7827 107.476 11.5806 107.741 11.4297C108.007 11.2789 108.308 11.2035 108.646 11.2035C108.96 11.2035 109.243 11.2759 109.497 11.4207C109.756 11.5655 109.958 11.7857 110.103 12.0813C110.254 12.3709 110.329 12.736 110.329 13.1764V15.7918C110.329 15.8522 110.308 15.9035 110.266 15.9457C110.23 15.9819 110.182 16 110.121 16H109.696C109.636 16 109.584 15.9819 109.542 15.9457C109.506 15.9035 109.488 15.8522 109.488 15.7918V13.2578C109.488 12.92 109.44 12.6545 109.343 12.4614C109.247 12.2684 109.117 12.1326 108.954 12.0542C108.791 11.9758 108.613 11.9365 108.42 11.9365C108.263 11.9365 108.103 11.9758 107.94 12.0542C107.777 12.1326 107.642 12.2684 107.533 12.4614C107.43 12.6545 107.379 12.92 107.379 13.2578V15.7918C107.379 15.8522 107.358 15.9035 107.316 15.9457C107.28 15.9819 107.231 16 107.171 16H106.746C106.685 16 106.634 15.9819 106.592 15.9457C106.556 15.9035 106.538 15.8522 106.538 15.7918V13.2578C106.538 12.92 106.486 12.6545 106.384 12.4614C106.281 12.2684 106.148 12.1326 105.985 12.0542C105.823 11.9758 105.651 11.9365 105.47 11.9365C105.313 11.9365 105.153 11.9758 104.99 12.0542C104.827 12.1326 104.691 12.2684 104.583 12.4614C104.48 12.6545 104.429 12.917 104.429 13.2488V15.7918C104.429 15.8522 104.408 15.9035 104.366 15.9457C104.329 15.9819 104.281 16 104.221 16H103.786Z" fill="white" fill-opacity="0.7"/>
<path d="M31.1917 13.7833C30.7241 14.2504 30.6851 14.9769 31.1007 15.4959C32.984 17.8572 33.9711 21.0878 33.0879 24.474C32.0619 28.4312 28.9577 31.3893 25.0222 32.1807C18.3982 33.4911 12.5925 28.3793 12.5925 21.983C12.5925 16.6895 16.5539 12.3302 21.6842 11.6944V14.3152C17.6189 15.0029 14.6316 18.8043 15.281 23.1766C15.7876 26.5629 18.606 29.2875 22.0089 29.7027C26.7367 30.2865 30.776 26.6018 30.776 21.983C30.776 20.3612 30.2825 18.8692 29.4382 17.6237C28.9966 16.9749 28.0485 16.936 27.49 17.4809L27.477 17.4939C27.0354 17.935 26.9964 18.6227 27.3341 19.1416C28.1134 20.3353 28.4252 21.8662 27.9706 23.4491C27.464 25.2266 25.9704 26.6407 24.152 27.0429C20.7751 27.7825 17.7878 25.2395 17.7878 21.983C17.7878 19.5698 19.4503 17.5588 21.6842 16.9749V19.7514C20.9049 20.2055 20.3854 21.0229 20.3854 21.983C20.3854 23.4102 21.5544 24.5778 22.9831 24.5778C24.4118 24.5778 25.5807 23.4102 25.5807 21.983C25.5807 21.0229 25.0612 20.1926 24.2819 19.7514V9.92995C24.2819 9.42395 23.8663 9.00878 23.3597 9.00878C16.398 8.74929 10.3974 14.2763 10.0208 21.2045C9.55319 29.7027 17.0474 36.5401 25.6197 34.6977C30.6591 33.6209 34.5556 29.7675 35.6856 24.7465C36.6078 20.6467 35.4258 16.7544 33.1269 13.8871C32.6463 13.2773 31.7372 13.2384 31.1917 13.7833V13.7833Z" fill="white"/>
</g>
</svg>
