<svg width="183" height="44" viewBox="0 0 183 44" fill="none" xmlns="http://www.w3.org/2000/svg">
<mask id="mask0_1443_5548" style="mask-type:alpha" maskUnits="userSpaceOnUse" x="0" y="0" width="183" height="44">
<rect width="183" height="44" rx="11" fill="#4285F4"/>
</mask>
<g mask="url(#mask0_1443_5548)">
<rect width="183" height="44" rx="11" fill="#D70022"/>
<path d="M131 15.5C62.6 39.5 21.8333 7.5 10 -11.5L-4.5 -4.5L-10 23.5C-4.16667 35.5 8 59.8 10 61C12 62.2 51.1667 62.8333 70.5 63L215 65.5L235.5 46.5C229.167 26.1667 199.4 -8.5 131 15.5Z" fill="#E7092C"/>
<path d="M48.5248 34C48.4177 34 48.3214 33.9626 48.2359 33.8877C48.1609 33.8021 48.1235 33.7058 48.1235 33.5988V23.1663C48.1235 23.0485 48.1609 22.9522 48.2359 22.8774C48.3214 22.8024 48.4177 22.765 48.5248 22.765H50.2581C50.4401 22.765 50.5738 22.8131 50.6594 22.9094C50.745 22.995 50.7985 23.0646 50.8199 23.1181L53.6447 28.1739L56.4695 23.1181C56.5016 23.0646 56.5551 22.995 56.63 22.9094C56.7156 22.8131 56.8493 22.765 57.0312 22.765H58.7486C58.8663 22.765 58.9626 22.8024 59.0375 22.8774C59.1231 22.9522 59.1659 23.0485 59.1659 23.1663V33.5988C59.1659 33.7058 59.1231 33.8021 59.0375 33.8877C58.9626 33.9626 58.8663 34 58.7486 34H56.8387C56.721 34 56.6193 33.9626 56.5337 33.8877C56.4588 33.8021 56.4213 33.7058 56.4213 33.5988V27.58L54.6238 30.9344C54.5703 31.0307 54.5007 31.1163 54.4151 31.1912C54.3295 31.2661 54.2118 31.3036 54.062 31.3036H53.2274C53.0776 31.3036 52.9599 31.2661 52.8743 31.1912C52.7887 31.1163 52.7191 31.0307 52.6656 30.9344L50.852 27.58V33.5988C50.852 33.7058 50.8145 33.8021 50.7396 33.8877C50.6647 33.9626 50.5684 34 50.4507 34H48.5248ZM65.1867 34.1605C64.2879 34.1605 63.5282 34.0161 62.9076 33.7271C62.2977 33.4382 61.8269 33.0263 61.4952 32.4913C61.1742 31.9456 60.9923 31.2982 60.9495 30.5493C60.9388 30.3353 60.9334 30.0945 60.9334 29.827C60.9334 29.5488 60.9388 29.3081 60.9495 29.1048C60.9923 28.3451 61.1849 27.6977 61.5273 27.1627C61.8697 26.6277 62.3458 26.2158 62.9557 25.9269C63.5763 25.6379 64.32 25.4935 65.1867 25.4935C66.0641 25.4935 66.8077 25.6379 67.4176 25.9269C68.0382 26.2158 68.5197 26.6277 68.8621 27.1627C69.2045 27.6977 69.3971 28.3451 69.4399 29.1048C69.4506 29.3081 69.456 29.5488 69.456 29.827C69.456 30.0945 69.4506 30.3353 69.4399 30.5493C69.3971 31.2982 69.2099 31.9456 68.8782 32.4913C68.5572 33.0263 68.0864 33.4382 67.4658 33.7271C66.8559 34.0161 66.0962 34.1605 65.1867 34.1605ZM65.1867 32.2024C65.6682 32.2024 66.0159 32.0579 66.2299 31.769C66.4546 31.4801 66.583 31.0468 66.6151 30.469C66.6258 30.3085 66.6312 30.0945 66.6312 29.827C66.6312 29.5595 66.6258 29.3455 66.6151 29.185C66.583 28.6179 66.4546 28.1899 66.2299 27.901C66.0159 27.6014 65.6682 27.4516 65.1867 27.4516C64.7266 27.4516 64.3788 27.6014 64.1434 27.901C63.9187 28.1899 63.7957 28.6179 63.7743 29.185C63.7636 29.3455 63.7582 29.5595 63.7582 29.827C63.7582 30.0945 63.7636 30.3085 63.7743 30.469C63.7957 31.0468 63.9187 31.4801 64.1434 31.769C64.3788 32.0579 64.7266 32.2024 65.1867 32.2024ZM71.036 34C70.929 34 70.8327 33.9626 70.7471 33.8877C70.6722 33.8021 70.6348 33.7058 70.6348 33.5988V32.3468C70.6348 32.2291 70.6562 32.1275 70.699 32.0419C70.7525 31.9456 70.8167 31.8653 70.8916 31.8011L74.6473 27.7244H71.1805C71.0628 27.7244 70.9611 27.687 70.8755 27.6121C70.8006 27.5372 70.7632 27.4409 70.7632 27.3232V26.0552C70.7632 25.9375 70.8006 25.8412 70.8755 25.7664C70.9611 25.6914 71.0628 25.654 71.1805 25.654H77.6326C77.7396 25.654 77.8305 25.6914 77.9054 25.7664C77.991 25.8412 78.0338 25.9375 78.0338 26.0552V27.4195C78.0338 27.5158 78.0124 27.6014 77.9696 27.6763C77.9268 27.7512 77.8733 27.8261 77.8091 27.901L74.1497 31.9295H77.9536C78.0713 31.9295 78.1676 31.967 78.2425 32.0419C78.3281 32.1168 78.3709 32.2131 78.3709 32.3308V33.5988C78.3709 33.7058 78.3281 33.8021 78.2425 33.8877C78.1676 33.9626 78.0713 34 77.9536 34H71.036ZM80.2444 34C80.1267 34 80.0304 33.9626 79.9555 33.8877C79.8806 33.8021 79.8432 33.7058 79.8432 33.5988V26.0552C79.8432 25.9375 79.8806 25.8412 79.9555 25.7664C80.0304 25.6914 80.1267 25.654 80.2444 25.654H82.1383C82.256 25.654 82.3523 25.6914 82.4272 25.7664C82.5021 25.8412 82.5396 25.9375 82.5396 26.0552V33.5988C82.5396 33.7058 82.5021 33.8021 82.4272 33.8877C82.3523 33.9626 82.256 34 82.1383 34H80.2444ZM80.2284 24.4502C80.1107 24.4502 80.0144 24.4128 79.9395 24.3379C79.8646 24.263 79.8271 24.1667 79.8271 24.049V22.6045C79.8271 22.4975 79.8646 22.4065 79.9395 22.3316C80.0144 22.2461 80.1107 22.2033 80.2284 22.2033H82.1544C82.2614 22.2033 82.3523 22.2461 82.4272 22.3316C82.5128 22.4065 82.5556 22.4975 82.5556 22.6045V24.049C82.5556 24.1667 82.5128 24.263 82.4272 24.3379C82.3523 24.4128 82.2614 24.4502 82.1544 24.4502H80.2284ZM84.8369 34C84.7192 34 84.6229 33.9626 84.548 33.8877C84.4731 33.8021 84.4356 33.7058 84.4356 33.5988V23.0057C84.4356 22.888 84.4731 22.7918 84.548 22.7169C84.6229 22.642 84.7192 22.6045 84.8369 22.6045H86.7308C86.8485 22.6045 86.9448 22.642 87.0197 22.7169C87.0946 22.7918 87.132 22.888 87.132 23.0057V33.5988C87.132 33.7058 87.0946 33.8021 87.0197 33.8877C86.9448 33.9626 86.8485 34 86.7308 34H84.8369ZM89.4293 34C89.3116 34 89.2153 33.9626 89.1404 33.8877C89.0655 33.8021 89.0281 33.7058 89.0281 33.5988V23.0057C89.0281 22.888 89.0655 22.7918 89.1404 22.7169C89.2153 22.642 89.3116 22.6045 89.4293 22.6045H91.3232C91.4409 22.6045 91.5372 22.642 91.6121 22.7169C91.687 22.7918 91.7245 22.888 91.7245 23.0057V33.5988C91.7245 33.7058 91.687 33.8021 91.6121 33.8877C91.5372 33.9626 91.4409 34 91.3232 34H89.4293ZM96.1243 34.1605C95.5465 34.1605 95.0275 34.0535 94.5674 33.8395C94.118 33.6148 93.7596 33.3152 93.4921 32.9407C93.2246 32.5662 93.0908 32.1435 93.0908 31.6727C93.0908 30.9131 93.4011 30.3139 94.0217 29.8752C94.6423 29.4257 95.4662 29.1208 96.4934 28.9603L98.4997 28.6554V28.4307C98.4997 28.0455 98.4194 27.7512 98.2589 27.5479C98.0984 27.3446 97.8042 27.2429 97.3762 27.2429C97.0766 27.2429 96.8305 27.3018 96.6379 27.4195C96.456 27.5372 96.3115 27.6977 96.2045 27.901C96.1082 28.0401 95.9745 28.1097 95.8033 28.1097H94.0057C93.888 28.1097 93.797 28.0775 93.7328 28.0133C93.6686 27.9384 93.6419 27.8528 93.6526 27.7565C93.6526 27.564 93.7221 27.3446 93.8612 27.0985C94.011 26.8417 94.2357 26.5902 94.5353 26.3441C94.8349 26.0981 95.2201 25.8948 95.6909 25.7342C96.1617 25.5737 96.7342 25.4935 97.4083 25.4935C98.0931 25.4935 98.6816 25.5737 99.1738 25.7342C99.666 25.8948 100.067 26.1195 100.378 26.4084C100.688 26.6973 100.913 27.0397 101.052 27.4356C101.201 27.8207 101.276 28.2487 101.276 28.7195V33.5988C101.276 33.7058 101.234 33.8021 101.148 33.8877C101.073 33.9626 100.982 34 100.875 34H99.0133C98.8956 34 98.7993 33.9626 98.7244 33.8877C98.6495 33.8021 98.612 33.7058 98.612 33.5988V33.037C98.4729 33.2403 98.2857 33.4276 98.0503 33.5988C97.8149 33.77 97.5367 33.9037 97.2157 34C96.9054 34.107 96.5416 34.1605 96.1243 34.1605ZM96.8786 32.3308C97.1889 32.3308 97.4671 32.2666 97.7132 32.1382C97.97 31.9991 98.168 31.7905 98.3071 31.5123C98.4569 31.2234 98.5318 30.8649 98.5318 30.4369V30.2122L97.1675 30.4529C96.6646 30.5385 96.2955 30.6723 96.0601 30.8542C95.8354 31.0254 95.723 31.2287 95.723 31.4641C95.723 31.646 95.7765 31.8012 95.8835 31.9295C95.9905 32.0579 96.1296 32.1596 96.3008 32.2345C96.4827 32.2987 96.6753 32.3308 96.8786 32.3308ZM107.082 34C106.964 34 106.868 33.9626 106.793 33.8877C106.718 33.8021 106.681 33.7058 106.681 33.5988V23.1663C106.681 23.0485 106.718 22.9522 106.793 22.8774C106.868 22.8024 106.964 22.765 107.082 22.765H114.465C114.583 22.765 114.679 22.8024 114.754 22.8774C114.829 22.9522 114.866 23.0485 114.866 23.1663V24.7873C114.866 24.905 114.829 25.0013 114.754 25.0762C114.679 25.1511 114.583 25.1886 114.465 25.1886H109.506V27.5479H114.144C114.262 27.5479 114.358 27.5907 114.433 27.6763C114.508 27.7512 114.545 27.8475 114.545 27.9652V29.5702C114.545 29.6772 114.508 29.7735 114.433 29.8591C114.358 29.934 114.262 29.9714 114.144 29.9714H109.506V33.5988C109.506 33.7058 109.468 33.8021 109.393 33.8877C109.318 33.9626 109.222 34 109.104 34H107.082ZM117.172 34C117.054 34 116.958 33.9626 116.883 33.8877C116.808 33.8021 116.771 33.7058 116.771 33.5988V26.0552C116.771 25.9375 116.808 25.8412 116.883 25.7664C116.958 25.6914 117.054 25.654 117.172 25.654H119.066C119.184 25.654 119.28 25.6914 119.355 25.7664C119.43 25.8412 119.467 25.9375 119.467 26.0552V33.5988C119.467 33.7058 119.43 33.8021 119.355 33.8877C119.28 33.9626 119.184 34 119.066 34H117.172ZM117.156 24.4502C117.038 24.4502 116.942 24.4128 116.867 24.3379C116.792 24.263 116.755 24.1667 116.755 24.049V22.6045C116.755 22.4975 116.792 22.4065 116.867 22.3316C116.942 22.2461 117.038 22.2033 117.156 22.2033H119.082C119.189 22.2033 119.28 22.2461 119.355 22.3316C119.44 22.4065 119.483 22.4975 119.483 22.6045V24.049C119.483 24.1667 119.44 24.263 119.355 24.3379C119.28 24.4128 119.189 24.4502 119.082 24.4502H117.156ZM122.266 34C122.148 34 122.052 33.9626 121.977 33.8877C121.902 33.8021 121.865 33.7058 121.865 33.5988V26.0552C121.865 25.9483 121.902 25.8573 121.977 25.7824C122.052 25.6968 122.148 25.654 122.266 25.654H124.112C124.229 25.654 124.326 25.6968 124.401 25.7824C124.486 25.8573 124.529 25.9483 124.529 26.0552V26.6973C124.807 26.3655 125.144 26.1087 125.54 25.9269C125.947 25.7449 126.402 25.654 126.904 25.654H127.611C127.728 25.654 127.825 25.6914 127.9 25.7664C127.974 25.8412 128.012 25.9375 128.012 26.0552V27.7084C128.012 27.8154 127.974 27.9117 127.9 27.9973C127.825 28.0722 127.728 28.1097 127.611 28.1097H126.054C125.615 28.1097 125.273 28.2327 125.027 28.4788C124.791 28.7142 124.673 29.0512 124.673 29.4899V33.5988C124.673 33.7058 124.631 33.8021 124.545 33.8877C124.47 33.9626 124.374 34 124.256 34H122.266ZM132.942 34.1605C131.68 34.1605 130.674 33.8181 129.925 33.1333C129.176 32.4485 128.785 31.432 128.753 30.0838C128.753 30.0089 128.753 29.9126 128.753 29.7949C128.753 29.6772 128.753 29.5863 128.753 29.522C128.785 28.6768 128.973 27.9545 129.315 27.3553C129.668 26.7454 130.15 26.2853 130.76 25.975C131.38 25.654 132.102 25.4935 132.926 25.4935C133.868 25.4935 134.644 25.6807 135.254 26.0552C135.874 26.4298 136.34 26.938 136.65 27.58C136.96 28.222 137.115 28.955 137.115 29.7789V30.1641C137.115 30.2817 137.078 30.378 137.003 30.4529C136.928 30.5278 136.832 30.5653 136.714 30.5653H131.578C131.578 30.576 131.578 30.592 131.578 30.6134C131.578 30.6349 131.578 30.6562 131.578 30.6776C131.589 30.988 131.642 31.2715 131.739 31.5283C131.846 31.7851 131.995 31.9884 132.188 32.1382C132.391 32.288 132.637 32.3629 132.926 32.3629C133.14 32.3629 133.317 32.3308 133.456 32.2666C133.606 32.1917 133.729 32.1115 133.825 32.0259C133.921 31.9296 133.996 31.8493 134.05 31.7851C134.146 31.6674 134.221 31.5979 134.275 31.5764C134.339 31.5443 134.435 31.5283 134.563 31.5283H136.554C136.661 31.5283 136.746 31.5604 136.81 31.6246C136.885 31.6888 136.917 31.7744 136.907 31.8814C136.896 32.0633 136.805 32.2827 136.634 32.5394C136.463 32.7963 136.211 33.0531 135.88 33.3099C135.559 33.5559 135.152 33.7592 134.66 33.9197C134.168 34.0803 133.595 34.1605 132.942 34.1605ZM131.578 28.9763H134.291V28.9442C134.291 28.5911 134.237 28.2915 134.13 28.0454C134.034 27.7887 133.879 27.5907 133.665 27.4516C133.461 27.3125 133.215 27.2429 132.926 27.2429C132.648 27.2429 132.407 27.3125 132.204 27.4516C132.001 27.5907 131.846 27.7887 131.739 28.0454C131.632 28.2915 131.578 28.5911 131.578 28.9442V28.9763ZM139.906 34C139.799 34 139.702 33.9626 139.617 33.8877C139.542 33.8021 139.504 33.7058 139.504 33.5988V27.7565H138.284C138.167 27.7565 138.07 27.7191 137.996 27.6442C137.921 27.5693 137.883 27.473 137.883 27.3553V26.0552C137.883 25.9375 137.921 25.8412 137.996 25.7664C138.07 25.6914 138.167 25.654 138.284 25.654H139.504V25.1404C139.504 24.4128 139.643 23.8297 139.922 23.391C140.21 22.9416 140.617 22.6206 141.141 22.428C141.666 22.2247 142.292 22.123 143.019 22.123H144.271C144.389 22.123 144.485 22.1605 144.56 22.2353C144.635 22.3103 144.672 22.4066 144.672 22.5243V23.8243C144.672 23.942 144.635 24.0383 144.56 24.1132C144.485 24.1881 144.389 24.2256 144.271 24.2256H143.148C142.784 24.2256 142.527 24.3111 142.377 24.4823C142.238 24.6535 142.169 24.8996 142.169 25.2206V25.654H144.111C144.228 25.654 144.325 25.6914 144.4 25.7664C144.474 25.8412 144.512 25.9375 144.512 26.0552V27.3553C144.512 27.473 144.474 27.5693 144.4 27.6442C144.325 27.7191 144.228 27.7565 144.111 27.7565H142.169V33.5988C142.169 33.7058 142.131 33.8021 142.056 33.8877C141.981 33.9626 141.885 34 141.767 34H139.906ZM149.512 34.1605C148.613 34.1605 147.853 34.0161 147.233 33.7271C146.623 33.4382 146.152 33.0263 145.82 32.4913C145.499 31.9456 145.317 31.2982 145.275 30.5493C145.264 30.3353 145.259 30.0945 145.259 29.827C145.259 29.5488 145.264 29.3081 145.275 29.1048C145.317 28.3451 145.51 27.6977 145.852 27.1627C146.195 26.6277 146.671 26.2158 147.281 25.9269C147.902 25.6379 148.645 25.4935 149.512 25.4935C150.389 25.4935 151.133 25.6379 151.743 25.9269C152.363 26.2158 152.845 26.6277 153.187 27.1627C153.53 27.6977 153.722 28.3451 153.765 29.1048C153.776 29.3081 153.781 29.5488 153.781 29.827C153.781 30.0945 153.776 30.3353 153.765 30.5493C153.722 31.2982 153.535 31.9456 153.203 32.4913C152.882 33.0263 152.412 33.4382 151.791 33.7271C151.181 34.0161 150.421 34.1605 149.512 34.1605ZM149.512 32.2024C149.993 32.2024 150.341 32.0579 150.555 31.769C150.78 31.4801 150.908 31.0468 150.94 30.469C150.951 30.3085 150.956 30.0945 150.956 29.827C150.956 29.5595 150.951 29.3455 150.94 29.185C150.908 28.6179 150.78 28.1899 150.555 27.901C150.341 27.6014 149.993 27.4516 149.512 27.4516C149.052 27.4516 148.704 27.6014 148.469 27.901C148.244 28.1899 148.121 28.6179 148.099 29.185C148.089 29.3455 148.083 29.5595 148.083 29.827C148.083 30.0945 148.089 30.3085 148.099 30.469C148.121 31.0468 148.244 31.4801 148.469 31.769C148.704 32.0579 149.052 32.2024 149.512 32.2024ZM154.741 34C154.644 34 154.559 33.9679 154.484 33.9037C154.42 33.8288 154.387 33.7378 154.387 33.6308C154.387 33.6095 154.393 33.5774 154.403 33.5346C154.414 33.481 154.436 33.4329 154.468 33.3901L157.148 29.7146L154.708 26.2639C154.676 26.2211 154.65 26.1783 154.628 26.1355C154.617 26.0927 154.612 26.0499 154.612 26.0071C154.612 25.9108 154.65 25.8306 154.724 25.7664C154.799 25.6914 154.885 25.654 154.981 25.654H156.939C157.078 25.654 157.18 25.6861 157.244 25.7503C157.319 25.8145 157.373 25.8734 157.405 25.9269L158.897 27.9812L160.374 25.9429C160.417 25.8894 160.47 25.8306 160.535 25.7664C160.609 25.6914 160.716 25.654 160.856 25.654H162.733C162.83 25.654 162.91 25.6914 162.974 25.7664C163.049 25.8306 163.087 25.9108 163.087 26.0071C163.087 26.0499 163.081 26.0927 163.07 26.1355C163.06 26.1783 163.038 26.2211 163.006 26.2639L160.502 29.7146L163.231 33.3901C163.263 33.4329 163.284 33.4757 163.295 33.5185C163.306 33.5613 163.311 33.5988 163.311 33.6308C163.311 33.7378 163.274 33.8288 163.199 33.9037C163.135 33.9679 163.054 34 162.958 34H160.904C160.775 34 160.679 33.9732 160.615 33.9197C160.551 33.8555 160.497 33.7967 160.454 33.7432L158.833 31.5443L157.196 33.7432C157.153 33.786 157.1 33.8395 157.036 33.9037C156.971 33.9679 156.875 34 156.747 34H154.741Z" fill="white"/>
<path d="M47.9955 16C47.9291 16 47.8779 15.9819 47.8417 15.9457C47.8055 15.9035 47.7874 15.8522 47.7874 15.7918V9.8822C47.7874 9.81583 47.8055 9.76455 47.8417 9.72835C47.8779 9.68612 47.9291 9.665 47.9955 9.665H50.0499C50.6713 9.665 51.1721 9.75852 51.5522 9.94555C51.9323 10.1326 52.2098 10.4101 52.3848 10.7781C52.5597 11.1401 52.6502 11.5866 52.6563 12.1175C52.6623 12.389 52.6653 12.6274 52.6653 12.8325C52.6653 13.0376 52.6623 13.2729 52.6563 13.5384C52.6442 14.0935 52.5507 14.555 52.3757 14.923C52.2068 15.285 51.9353 15.5565 51.5612 15.7375C51.1932 15.9125 50.7045 16 50.0951 16H47.9955ZM48.6743 15.2307H50.0499C50.4662 15.2307 50.798 15.1734 51.0454 15.0588C51.2927 14.9442 51.4707 14.7601 51.5793 14.5067C51.6939 14.2533 51.7543 13.9185 51.7603 13.5022C51.7724 13.3212 51.7784 13.1643 51.7784 13.0316C51.7784 12.8928 51.7784 12.7571 51.7784 12.6243C51.7784 12.4856 51.7724 12.3287 51.7603 12.1537C51.7482 11.5685 51.6095 11.1371 51.344 10.8596C51.0785 10.576 50.6321 10.4342 50.0046 10.4342H48.6743V15.2307ZM55.8369 16.0905C55.3784 16.0905 54.9953 16.003 54.6876 15.828C54.3799 15.6531 54.1446 15.4117 53.9817 15.104C53.8188 14.7903 53.7283 14.4343 53.7102 14.0361C53.7041 13.9336 53.7011 13.8039 53.7011 13.647C53.7011 13.4841 53.7041 13.3544 53.7102 13.2578C53.7283 12.8536 53.8188 12.4976 53.9817 12.1899C54.1506 11.8822 54.3889 11.6409 54.6966 11.4659C55.0043 11.291 55.3844 11.2035 55.8369 11.2035C56.2894 11.2035 56.6695 11.291 56.9772 11.4659C57.2849 11.6409 57.5202 11.8822 57.6831 12.1899C57.852 12.4976 57.9456 12.8536 57.9637 13.2578C57.9697 13.3544 57.9727 13.4841 57.9727 13.647C57.9727 13.8039 57.9697 13.9336 57.9637 14.0361C57.9456 14.4343 57.8551 14.7903 57.6922 15.104C57.5293 15.4117 57.294 15.6531 56.9863 15.828C56.6786 16.003 56.2954 16.0905 55.8369 16.0905ZM55.8369 15.3936C56.211 15.3936 56.5096 15.276 56.7329 15.0407C56.9561 14.7994 57.0768 14.4494 57.0949 13.9909C57.1009 13.9004 57.1039 13.7858 57.1039 13.647C57.1039 13.5082 57.1009 13.3936 57.0949 13.3031C57.0768 12.8446 56.9561 12.4976 56.7329 12.2623C56.5096 12.021 56.211 11.9003 55.8369 11.9003C55.4628 11.9003 55.1612 12.021 54.9319 12.2623C54.7087 12.4976 54.591 12.8446 54.579 13.3031C54.5729 13.3936 54.5699 13.5082 54.5699 13.647C54.5699 13.7858 54.5729 13.9004 54.579 13.9909C54.591 14.4494 54.7087 14.7994 54.9319 15.0407C55.1612 15.276 55.4628 15.3936 55.8369 15.3936ZM60.2311 16C60.1527 16 60.0923 15.9819 60.0501 15.9457C60.0079 15.9035 59.9717 15.8461 59.9415 15.7737L58.6564 11.5745C58.6443 11.5444 58.6383 11.5142 58.6383 11.484C58.6383 11.4297 58.6564 11.3845 58.6926 11.3483C58.7348 11.3121 58.7801 11.294 58.8284 11.294H59.2266C59.2929 11.294 59.3442 11.3121 59.3804 11.3483C59.4166 11.3845 59.4407 11.4177 59.4528 11.4478L60.4574 14.8597L61.5343 11.484C61.5464 11.4418 61.5705 11.3996 61.6067 11.3573C61.6489 11.3151 61.7093 11.294 61.7877 11.294H62.0954C62.1738 11.294 62.2342 11.3151 62.2764 11.3573C62.3186 11.3996 62.3428 11.4418 62.3488 11.484L63.4258 14.8597L64.4303 11.4478C64.4363 11.4177 64.4575 11.3845 64.4937 11.3483C64.5299 11.3121 64.5811 11.294 64.6475 11.294H65.0548C65.103 11.294 65.1453 11.3121 65.1815 11.3483C65.2177 11.3845 65.2358 11.4297 65.2358 11.484C65.2358 11.5142 65.2297 11.5444 65.2177 11.5745L63.9416 15.7737C63.9175 15.8461 63.8843 15.9035 63.8421 15.9457C63.7998 15.9819 63.7335 16 63.643 16H63.29C63.2116 16 63.1452 15.9819 63.0909 15.9457C63.0426 15.9035 63.0095 15.8461 62.9914 15.7737L61.9416 12.5338L60.8918 15.7737C60.8676 15.8461 60.8314 15.9035 60.7832 15.9457C60.7349 15.9819 60.6685 16 60.5841 16H60.2311ZM66.4463 16C66.3859 16 66.3346 15.9819 66.2924 15.9457C66.2562 15.9035 66.2381 15.8522 66.2381 15.7918V11.5021C66.2381 11.4418 66.2562 11.3935 66.2924 11.3573C66.3346 11.3151 66.3859 11.294 66.4463 11.294H66.8716C66.9319 11.294 66.9802 11.3151 67.0164 11.3573C67.0586 11.3935 67.0798 11.4418 67.0798 11.5021V11.9003C67.2366 11.6952 67.4327 11.5293 67.668 11.4026C67.9093 11.2699 68.217 11.2035 68.5911 11.2035C68.9833 11.2035 69.3151 11.291 69.5866 11.4659C69.8641 11.6349 70.0723 11.8732 70.2111 12.1809C70.3559 12.4826 70.4283 12.8355 70.4283 13.2397V15.7918C70.4283 15.8522 70.4071 15.9035 70.3649 15.9457C70.3287 15.9819 70.2804 16 70.2201 16H69.7676C69.7073 16 69.656 15.9819 69.6138 15.9457C69.5776 15.9035 69.5595 15.8522 69.5595 15.7918V13.285C69.5595 12.8627 69.4569 12.5338 69.2518 12.2985C69.0466 12.0572 68.745 11.9365 68.3468 11.9365C67.9727 11.9365 67.671 12.0572 67.4418 12.2985C67.2185 12.5338 67.1069 12.8627 67.1069 13.285V15.7918C67.1069 15.8522 67.0858 15.9035 67.0436 15.9457C67.0074 15.9819 66.9591 16 66.8988 16H66.4463ZM71.9436 16C71.8833 16 71.832 15.9819 71.7898 15.9457C71.7536 15.9035 71.7355 15.8522 71.7355 15.7918V9.78265C71.7355 9.72232 71.7536 9.67405 71.7898 9.63785C71.832 9.59562 71.8833 9.5745 71.9436 9.5745H72.369C72.4354 9.5745 72.4866 9.59562 72.5228 9.63785C72.559 9.67405 72.5771 9.72232 72.5771 9.78265V15.7918C72.5771 15.8522 72.559 15.9035 72.5228 15.9457C72.4866 15.9819 72.4354 16 72.369 16H71.9436ZM75.8547 16.0905C75.3962 16.0905 75.0131 16.003 74.7054 15.828C74.3977 15.6531 74.1624 15.4117 73.9995 15.104C73.8366 14.7903 73.7461 14.4343 73.728 14.0361C73.7219 13.9336 73.7189 13.8039 73.7189 13.647C73.7189 13.4841 73.7219 13.3544 73.728 13.2578C73.7461 12.8536 73.8366 12.4976 73.9995 12.1899C74.1684 11.8822 74.4067 11.6409 74.7144 11.4659C75.0221 11.291 75.4022 11.2035 75.8547 11.2035C76.3072 11.2035 76.6873 11.291 76.995 11.4659C77.3027 11.6409 77.538 11.8822 77.7009 12.1899C77.8699 12.4976 77.9634 12.8536 77.9815 13.2578C77.9875 13.3544 77.9905 13.4841 77.9905 13.647C77.9905 13.8039 77.9875 13.9336 77.9815 14.0361C77.9634 14.4343 77.8729 14.7903 77.71 15.104C77.5471 15.4117 77.3118 15.6531 77.0041 15.828C76.6964 16.003 76.3133 16.0905 75.8547 16.0905ZM75.8547 15.3936C76.2288 15.3936 76.5274 15.276 76.7507 15.0407C76.9739 14.7994 77.0946 14.4494 77.1127 13.9909C77.1187 13.9004 77.1217 13.7858 77.1217 13.647C77.1217 13.5082 77.1187 13.3936 77.1127 13.3031C77.0946 12.8446 76.9739 12.4976 76.7507 12.2623C76.5274 12.021 76.2288 11.9003 75.8547 11.9003C75.4807 11.9003 75.179 12.021 74.9497 12.2623C74.7265 12.4976 74.6088 12.8446 74.5968 13.3031C74.5907 13.3936 74.5877 13.5082 74.5877 13.647C74.5877 13.7858 74.5907 13.9004 74.5968 13.9909C74.6088 14.4494 74.7265 14.7994 74.9497 15.0407C75.179 15.276 75.4807 15.3936 75.8547 15.3936ZM80.436 16.0905C80.1343 16.0905 79.8598 16.0302 79.6125 15.9095C79.3651 15.7888 79.166 15.6259 79.0152 15.4208C78.8643 15.2157 78.7889 14.9834 78.7889 14.7239C78.7889 14.3076 78.9578 13.9758 79.2957 13.7284C79.6336 13.4811 80.074 13.3182 80.617 13.2397L81.9655 13.0497V12.7872C81.9655 12.4976 81.881 12.2714 81.7121 12.1085C81.5492 11.9456 81.2807 11.8641 80.9066 11.8641C80.6411 11.8641 80.4239 11.9184 80.255 12.027C80.0861 12.1356 79.9684 12.2744 79.9021 12.4433C79.8659 12.5338 79.8025 12.5791 79.712 12.5791H79.3048C79.2384 12.5791 79.1871 12.561 79.1509 12.5248C79.1207 12.4826 79.1057 12.4343 79.1057 12.38C79.1057 12.2895 79.1388 12.1779 79.2052 12.0451C79.2776 11.9124 79.3862 11.7827 79.531 11.656C79.6758 11.5293 79.8598 11.4237 80.0831 11.3392C80.3123 11.2487 80.5899 11.2035 80.9157 11.2035C81.2777 11.2035 81.5823 11.2518 81.8297 11.3483C82.0771 11.4388 82.2701 11.5625 82.4089 11.7193C82.5537 11.8762 82.6563 12.0542 82.7166 12.2533C82.783 12.4524 82.8162 12.6545 82.8162 12.8596V15.7918C82.8162 15.8522 82.795 15.9035 82.7528 15.9457C82.7166 15.9819 82.6683 16 82.608 16H82.1917C82.1253 16 82.0741 15.9819 82.0379 15.9457C82.0017 15.9035 81.9836 15.8522 81.9836 15.7918V15.4027C81.9051 15.5113 81.7995 15.6199 81.6668 15.7285C81.5341 15.8311 81.3682 15.9185 81.1691 15.9909C80.97 16.0573 80.7256 16.0905 80.436 16.0905ZM80.6261 15.4117C80.8734 15.4117 81.0997 15.3605 81.3048 15.2579C81.5099 15.1493 81.6698 14.9834 81.7845 14.7601C81.9051 14.5369 81.9655 14.2564 81.9655 13.9185V13.6651L80.9157 13.8189C80.4873 13.8793 80.1645 13.9818 79.9473 14.1266C79.7301 14.2654 79.6215 14.4434 79.6215 14.6606C79.6215 14.8295 79.6698 14.9713 79.7663 15.0859C79.8689 15.1945 79.9956 15.276 80.1464 15.3303C80.3033 15.3846 80.4632 15.4117 80.6261 15.4117ZM85.8367 16.0905C85.5048 16.0905 85.2182 16.0332 84.9769 15.9185C84.7356 15.7979 84.5365 15.638 84.3796 15.4389C84.2288 15.2338 84.1141 15.0015 84.0357 14.742C83.9633 14.4826 83.9211 14.2081 83.909 13.9185C83.903 13.822 83.9 13.7315 83.9 13.647C83.9 13.5625 83.903 13.472 83.909 13.3755C83.9211 13.0919 83.9633 12.8204 84.0357 12.561C84.1141 12.3016 84.2288 12.0693 84.3796 11.8641C84.5365 11.659 84.7356 11.4991 84.9769 11.3845C85.2182 11.2638 85.5048 11.2035 85.8367 11.2035C86.1926 11.2035 86.4883 11.2668 86.7236 11.3935C86.9589 11.5202 87.1519 11.6771 87.3028 11.8641V9.78265C87.3028 9.72232 87.3209 9.67405 87.3571 9.63785C87.3993 9.59562 87.4506 9.5745 87.5109 9.5745H87.9453C88.0056 9.5745 88.0539 9.59562 88.0901 9.63785C88.1323 9.67405 88.1535 9.72232 88.1535 9.78265V15.7918C88.1535 15.8522 88.1323 15.9035 88.0901 15.9457C88.0539 15.9819 88.0056 16 87.9453 16H87.5381C87.4717 16 87.4204 15.9819 87.3842 15.9457C87.348 15.9035 87.3299 15.8522 87.3299 15.7918V15.4117C87.1791 15.6048 86.983 15.7677 86.7417 15.9004C86.5003 16.0272 86.1987 16.0905 85.8367 16.0905ZM86.0267 15.3574C86.3284 15.3574 86.5697 15.2881 86.7507 15.1493C86.9317 15.0105 87.0675 14.8356 87.158 14.6244C87.2485 14.4072 87.2967 14.187 87.3028 13.9637C87.3088 13.8672 87.3118 13.7526 87.3118 13.6198C87.3118 13.4811 87.3088 13.3634 87.3028 13.2669C87.2967 13.0557 87.2454 12.8476 87.1489 12.6424C87.0584 12.4373 86.9196 12.2684 86.7326 12.1356C86.5516 12.0029 86.3163 11.9365 86.0267 11.9365C85.719 11.9365 85.4747 12.0059 85.2937 12.1447C85.1127 12.2774 84.9829 12.4554 84.9045 12.6786C84.8261 12.8958 84.7808 13.1311 84.7688 13.3845C84.7627 13.5595 84.7627 13.7345 84.7688 13.9094C84.7808 14.1628 84.8261 14.4012 84.9045 14.6244C84.9829 14.8416 85.1127 15.0196 85.2937 15.1583C85.4747 15.2911 85.719 15.3574 86.0267 15.3574ZM92.2286 16C92.1682 16 92.117 15.9819 92.0747 15.9457C92.0385 15.9035 92.0204 15.8522 92.0204 15.7918V12.018H91.2512C91.1908 12.018 91.1396 11.9999 91.0973 11.9637C91.0611 11.9215 91.043 11.8702 91.043 11.8098V11.5021C91.043 11.4418 91.0611 11.3935 91.0973 11.3573C91.1396 11.3151 91.1908 11.294 91.2512 11.294H92.0204V10.8415C92.0204 10.5338 92.0717 10.2653 92.1743 10.036C92.2768 9.80075 92.4397 9.61975 92.663 9.49305C92.8922 9.36635 93.1969 9.303 93.577 9.303H94.12C94.1804 9.303 94.2286 9.32412 94.2648 9.36635C94.3071 9.40255 94.3282 9.45082 94.3282 9.51115V9.81885C94.3282 9.87918 94.3071 9.93047 94.2648 9.9727C94.2286 10.0089 94.1804 10.027 94.12 10.027H93.5951C93.3116 10.027 93.1185 10.1024 93.0159 10.2532C92.9134 10.398 92.8621 10.6092 92.8621 10.8867V11.294H94.0295C94.0899 11.294 94.1381 11.3151 94.1743 11.3573C94.2166 11.3935 94.2377 11.4418 94.2377 11.5021V11.8098C94.2377 11.8702 94.2166 11.9215 94.1743 11.9637C94.1381 11.9999 94.0899 12.018 94.0295 12.018H92.8621V15.7918C92.8621 15.8522 92.841 15.9035 92.7987 15.9457C92.7625 15.9819 92.7143 16 92.6539 16H92.2286ZM95.2401 16C95.1798 16 95.1285 15.9819 95.0863 15.9457C95.0501 15.9035 95.032 15.8522 95.032 15.7918V11.5112C95.032 11.4509 95.0501 11.3996 95.0863 11.3573C95.1285 11.3151 95.1798 11.294 95.2401 11.294H95.6564C95.7167 11.294 95.768 11.3151 95.8103 11.3573C95.8525 11.3996 95.8736 11.4509 95.8736 11.5112V11.9094C95.9943 11.7043 96.1602 11.5504 96.3714 11.4478C96.5825 11.3453 96.8389 11.294 97.1406 11.294H97.4936C97.5539 11.294 97.6022 11.3151 97.6384 11.3573C97.6806 11.3935 97.7017 11.4418 97.7017 11.5021V11.8732C97.7017 11.9335 97.6806 11.9818 97.6384 12.018C97.6022 12.0542 97.5539 12.0723 97.4936 12.0723H96.9506C96.6248 12.0723 96.3683 12.1688 96.1813 12.3619C95.9943 12.5489 95.9008 12.8053 95.9008 13.1311V15.7918C95.9008 15.8522 95.8796 15.9035 95.8374 15.9457C95.7952 15.9819 95.7439 16 95.6836 16H95.2401ZM100.309 16.0905C99.8506 16.0905 99.4675 16.003 99.1598 15.828C98.8521 15.6531 98.6168 15.4117 98.4539 15.104C98.291 14.7903 98.2005 14.4343 98.1824 14.0361C98.1764 13.9336 98.1734 13.8039 98.1734 13.647C98.1734 13.4841 98.1764 13.3544 98.1824 13.2578C98.2005 12.8536 98.291 12.4976 98.4539 12.1899C98.6229 11.8822 98.8612 11.6409 99.1689 11.4659C99.4766 11.291 99.8567 11.2035 100.309 11.2035C100.762 11.2035 101.142 11.291 101.449 11.4659C101.757 11.6409 101.992 11.8822 102.155 12.1899C102.324 12.4976 102.418 12.8536 102.436 13.2578C102.442 13.3544 102.445 13.4841 102.445 13.647C102.445 13.8039 102.442 13.9336 102.436 14.0361C102.418 14.4343 102.327 14.7903 102.164 15.104C102.002 15.4117 101.766 15.6531 101.459 15.828C101.151 16.003 100.768 16.0905 100.309 16.0905ZM100.309 15.3936C100.683 15.3936 100.982 15.276 101.205 15.0407C101.428 14.7994 101.549 14.4494 101.567 13.9909C101.573 13.9004 101.576 13.7858 101.576 13.647C101.576 13.5082 101.573 13.3936 101.567 13.3031C101.549 12.8446 101.428 12.4976 101.205 12.2623C100.982 12.021 100.683 11.9003 100.309 11.9003C99.9351 11.9003 99.6334 12.021 99.4042 12.2623C99.1809 12.4976 99.0633 12.8446 99.0512 13.3031C99.0452 13.3936 99.0422 13.5082 99.0422 13.647C99.0422 13.7858 99.0452 13.9004 99.0512 13.9909C99.0633 14.4494 99.1809 14.7994 99.4042 15.0407C99.6334 15.276 99.9351 15.3936 100.309 15.3936ZM103.786 16C103.726 16 103.675 15.9819 103.632 15.9457C103.596 15.9035 103.578 15.8522 103.578 15.7918V11.5021C103.578 11.4418 103.596 11.3935 103.632 11.3573C103.675 11.3151 103.726 11.294 103.786 11.294H104.194C104.254 11.294 104.302 11.3151 104.338 11.3573C104.381 11.3935 104.402 11.4418 104.402 11.5021V11.8189C104.541 11.6319 104.715 11.484 104.927 11.3754C105.138 11.2608 105.391 11.2035 105.687 11.2035C106.369 11.1975 106.851 11.475 107.135 12.0361C107.274 11.7827 107.476 11.5806 107.741 11.4297C108.007 11.2789 108.308 11.2035 108.646 11.2035C108.96 11.2035 109.243 11.2759 109.497 11.4207C109.756 11.5655 109.958 11.7857 110.103 12.0813C110.254 12.3709 110.329 12.736 110.329 13.1764V15.7918C110.329 15.8522 110.308 15.9035 110.266 15.9457C110.23 15.9819 110.182 16 110.121 16H109.696C109.636 16 109.584 15.9819 109.542 15.9457C109.506 15.9035 109.488 15.8522 109.488 15.7918V13.2578C109.488 12.92 109.44 12.6545 109.343 12.4614C109.247 12.2684 109.117 12.1326 108.954 12.0542C108.791 11.9758 108.613 11.9365 108.42 11.9365C108.263 11.9365 108.103 11.9758 107.94 12.0542C107.777 12.1326 107.642 12.2684 107.533 12.4614C107.43 12.6545 107.379 12.92 107.379 13.2578V15.7918C107.379 15.8522 107.358 15.9035 107.316 15.9457C107.28 15.9819 107.231 16 107.171 16H106.746C106.685 16 106.634 15.9819 106.592 15.9457C106.556 15.9035 106.538 15.8522 106.538 15.7918V13.2578C106.538 12.92 106.486 12.6545 106.384 12.4614C106.281 12.2684 106.148 12.1326 105.985 12.0542C105.823 11.9758 105.651 11.9365 105.47 11.9365C105.313 11.9365 105.153 11.9758 104.99 12.0542C104.827 12.1326 104.691 12.2684 104.583 12.4614C104.48 12.6545 104.429 12.917 104.429 13.2488V15.7918C104.429 15.8522 104.408 15.9035 104.366 15.9457C104.329 15.9819 104.281 16 104.221 16H103.786Z" fill="white" fill-opacity="0.7"/>
<path d="M20.0795 15.894C20.0836 15.894 20.0885 15.894 20.0795 15.894ZM17.065 14.3769C17.0691 14.3769 17.074 14.3769 17.065 14.3769ZM35.0969 16.7186C34.5532 15.4026 33.4494 13.9839 32.5869 13.531C33.2921 14.9193 33.6997 16.3174 33.8521 17.3553L33.8562 17.3775C32.4386 13.8255 30.0403 12.3946 28.0781 9.27834C27.9803 9.1208 27.8825 8.96245 27.7847 8.79588C27.7333 8.71055 27.6909 8.62522 27.6445 8.53415C27.5638 8.37661 27.5051 8.21005 27.4619 8.03446C27.4619 8.01805 27.4496 8.00492 27.4325 8.00082C27.4236 8.00082 27.4154 8.00082 27.4072 8.00082L27.4032 8.00492C27.3991 8.00492 27.3942 8.00903 27.3942 8.00903C27.3942 8.00903 27.3942 8.00492 27.3983 8C24.6128 9.641 23.4626 12.5169 23.165 14.3416C22.3034 14.3933 21.4629 14.6108 20.686 14.9784C20.5369 15.0547 20.47 15.227 20.5254 15.3796C20.5882 15.5543 20.7839 15.6413 20.9534 15.5634C21.6325 15.2426 22.3629 15.0506 23.1145 14.9997L23.187 14.9907C23.2889 14.9866 23.3949 14.9816 23.4968 14.9816C24.1041 14.9775 24.7106 15.0629 25.2927 15.2335L25.3946 15.2639C25.4924 15.2934 25.5861 15.3271 25.6839 15.3623C25.7516 15.3878 25.8242 15.414 25.8918 15.4436C25.9472 15.4641 26.0027 15.4903 26.0573 15.5117C26.1429 15.5511 26.2277 15.5937 26.3125 15.6364L26.4266 15.6914C26.5114 15.7349 26.5929 15.7808 26.6736 15.8284C26.7249 15.8587 26.7755 15.8883 26.826 15.9227C27.7317 16.4873 28.4866 17.2692 29.0132 18.2005C28.3472 17.7311 27.1488 17.261 25.9994 17.4661C30.4992 19.7307 29.2895 27.5295 23.0525 27.2342C22.4958 27.2136 21.9479 27.1062 21.4262 26.9183C21.2991 26.8715 21.1752 26.8198 21.0569 26.7681C20.9852 26.7345 20.9127 26.7 20.845 26.6664C19.3157 25.8713 18.0546 24.3665 17.8981 22.5417C17.8981 22.5417 18.4753 20.3756 22.0327 20.3756C22.4199 20.3756 23.5196 19.2934 23.54 18.9816C23.531 18.879 21.3529 18.0076 20.5043 17.1658C20.0502 16.717 19.8382 16.4996 19.6467 16.3363C19.5448 16.2468 19.4347 16.1656 19.3198 16.0893C19.0361 15.085 19.0231 14.0208 19.2864 13.0116C17.9992 13.6016 17.0014 14.5336 16.2759 15.3541H16.2685C15.7721 14.7215 15.8096 12.6358 15.8349 12.2001C15.8308 12.1706 15.4656 12.388 15.4183 12.4225C14.9814 12.7384 14.5697 13.0896 14.1955 13.4785C13.7676 13.9142 13.3771 14.3843 13.0241 14.8889C12.222 16.0343 11.6489 17.3332 11.3473 18.7001C11.3432 18.7174 11.2291 19.231 11.1443 19.8628C11.1272 19.9612 11.1141 20.0597 11.1019 20.1573C11.0668 20.3969 11.0424 20.6406 11.0293 20.8802L11.0253 20.9188C11.0179 21.0599 11.009 21.1969 11 21.338V21.4012C11 28.3591 16.6044 34 23.5172 34C29.7069 34 34.8483 29.4741 35.855 23.5337C35.877 23.3721 35.8933 23.2096 35.9105 23.0471C36.1607 20.8884 35.8852 18.6156 35.0993 16.7186H35.0969Z" fill="white"/>
</g>
</svg>
